<?xml version="1.0" encoding="utf-8" standalone="no"?>
<!DOCTYPE svg PUBLIC "-//W3C//DTD SVG 1.1//EN"
  "http://www.w3.org/Graphics/SVG/1.1/DTD/svg11.dtd">
<svg xmlns:xlink="http://www.w3.org/1999/xlink" width="568.500625pt" height="424.151875pt" viewBox="0 0 568.500625 424.151875" xmlns="http://www.w3.org/2000/svg" version="1.1">
 <metadata>
  <rdf:RDF xmlns:dc="http://purl.org/dc/elements/1.1/" xmlns:cc="http://creativecommons.org/ns#" xmlns:rdf="http://www.w3.org/1999/02/22-rdf-syntax-ns#">
   <cc:Work>
    <dc:type rdf:resource="http://purl.org/dc/dcmitype/StillImage"/>
    <dc:date>2025-10-09T15:10:01.097285</dc:date>
    <dc:format>image/svg+xml</dc:format>
    <dc:creator>
     <cc:Agent>
      <dc:title>Matplotlib v3.6.3, https://matplotlib.org/</dc:title>
     </cc:Agent>
    </dc:creator>
   </cc:Work>
  </rdf:RDF>
 </metadata>
 <defs>
  <style type="text/css">*{stroke-linejoin: round; stroke-linecap: butt}</style>
 </defs>
 <g id="figure_1">
  <g id="patch_1">
   <path d="M 0 424.151875 
L 568.500625 424.151875 
L 568.500625 0 
L 0 0 
z
" style="fill: #ffffff"/>
  </g>
  <g id="axes_1">
   <g id="patch_2">
    <path d="M 44.430625 385.215 
L 552.960625 385.215 
L 552.960625 24.795 
L 44.430625 24.795 
z
" style="fill: #ffffff"/>
   </g>
   <g id="matplotlib.axis_1">
    <g id="xtick_1">
     <g id="line2d_1">
      <path d="M 44.430625 385.215 
L 44.430625 24.795 
" clip-path="url(#pdde7050f08)" style="fill: none; stroke: #cccccc; stroke-width: 0.8; stroke-linecap: round"/>
     </g>
     <g id="line2d_2"/>
     <g id="text_1">
      <!-- 0.0 -->
      <g style="fill: #262626" transform="translate(36.090625 397.41125) scale(0.12 -0.12)">
       <defs>
        <path id="LiberationSans-30" d="M 3309 2203 
Q 3309 1100 2920 518 
Q 2531 -63 1772 -63 
Q 1013 -63 631 515 
Q 250 1094 250 2203 
Q 250 3338 620 3903 
Q 991 4469 1791 4469 
Q 2569 4469 2939 3897 
Q 3309 3325 3309 2203 
z
M 2738 2203 
Q 2738 3156 2517 3584 
Q 2297 4013 1791 4013 
Q 1272 4013 1045 3591 
Q 819 3169 819 2203 
Q 819 1266 1048 831 
Q 1278 397 1778 397 
Q 2275 397 2506 840 
Q 2738 1284 2738 2203 
z
" transform="scale(0.015625)"/>
        <path id="LiberationSans-2e" d="M 584 0 
L 584 684 
L 1194 684 
L 1194 0 
L 584 0 
z
" transform="scale(0.015625)"/>
       </defs>
       <use xlink:href="#LiberationSans-30"/>
       <use xlink:href="#LiberationSans-2e" x="55.615234"/>
       <use xlink:href="#LiberationSans-30" x="83.398438"/>
      </g>
     </g>
    </g>
    <g id="xtick_2">
     <g id="line2d_3">
      <path d="M 146.136625 385.215 
L 146.136625 24.795 
" clip-path="url(#pdde7050f08)" style="fill: none; stroke: #cccccc; stroke-width: 0.8; stroke-linecap: round"/>
     </g>
     <g id="line2d_4"/>
     <g id="text_2">
      <!-- 0.2 -->
      <g style="fill: #262626" transform="translate(137.796625 397.41125) scale(0.12 -0.12)">
       <defs>
        <path id="LiberationSans-32" d="M 322 0 
L 322 397 
Q 481 763 711 1042 
Q 941 1322 1194 1548 
Q 1447 1775 1695 1969 
Q 1944 2163 2144 2356 
Q 2344 2550 2467 2762 
Q 2591 2975 2591 3244 
Q 2591 3606 2378 3806 
Q 2166 4006 1788 4006 
Q 1428 4006 1195 3811 
Q 963 3616 922 3263 
L 347 3316 
Q 409 3844 795 4156 
Q 1181 4469 1788 4469 
Q 2453 4469 2811 4155 
Q 3169 3841 3169 3263 
Q 3169 3006 3051 2753 
Q 2934 2500 2703 2247 
Q 2472 1994 1819 1463 
Q 1459 1169 1246 933 
Q 1034 697 941 478 
L 3238 478 
L 3238 0 
L 322 0 
z
" transform="scale(0.015625)"/>
       </defs>
       <use xlink:href="#LiberationSans-30"/>
       <use xlink:href="#LiberationSans-2e" x="55.615234"/>
       <use xlink:href="#LiberationSans-32" x="83.398438"/>
      </g>
     </g>
    </g>
    <g id="xtick_3">
     <g id="line2d_5">
      <path d="M 247.842625 385.215 
L 247.842625 24.795 
" clip-path="url(#pdde7050f08)" style="fill: none; stroke: #cccccc; stroke-width: 0.8; stroke-linecap: round"/>
     </g>
     <g id="line2d_6"/>
     <g id="text_3">
      <!-- 0.4 -->
      <g style="fill: #262626" transform="translate(239.502625 397.41125) scale(0.12 -0.12)">
       <defs>
        <path id="LiberationSans-34" d="M 2753 997 
L 2753 0 
L 2222 0 
L 2222 997 
L 147 997 
L 147 1434 
L 2163 4403 
L 2753 4403 
L 2753 1441 
L 3372 1441 
L 3372 997 
L 2753 997 
z
M 2222 3769 
Q 2216 3750 2134 3603 
Q 2053 3456 2013 3397 
L 884 1734 
L 716 1503 
L 666 1441 
L 2222 1441 
L 2222 3769 
z
" transform="scale(0.015625)"/>
       </defs>
       <use xlink:href="#LiberationSans-30"/>
       <use xlink:href="#LiberationSans-2e" x="55.615234"/>
       <use xlink:href="#LiberationSans-34" x="83.398438"/>
      </g>
     </g>
    </g>
    <g id="xtick_4">
     <g id="line2d_7">
      <path d="M 349.548625 385.215 
L 349.548625 24.795 
" clip-path="url(#pdde7050f08)" style="fill: none; stroke: #cccccc; stroke-width: 0.8; stroke-linecap: round"/>
     </g>
     <g id="line2d_8"/>
     <g id="text_4">
      <!-- 0.6 -->
      <g style="fill: #262626" transform="translate(341.208625 397.41125) scale(0.12 -0.12)">
       <defs>
        <path id="LiberationSans-36" d="M 3278 1441 
Q 3278 744 2900 340 
Q 2522 -63 1856 -63 
Q 1113 -63 719 490 
Q 325 1044 325 2100 
Q 325 3244 734 3856 
Q 1144 4469 1900 4469 
Q 2897 4469 3156 3572 
L 2619 3475 
Q 2453 4013 1894 4013 
Q 1413 4013 1148 3564 
Q 884 3116 884 2266 
Q 1038 2550 1316 2698 
Q 1594 2847 1953 2847 
Q 2563 2847 2920 2465 
Q 3278 2084 3278 1441 
z
M 2706 1416 
Q 2706 1894 2472 2153 
Q 2238 2413 1819 2413 
Q 1425 2413 1183 2183 
Q 941 1953 941 1550 
Q 941 1041 1192 716 
Q 1444 391 1838 391 
Q 2244 391 2475 664 
Q 2706 938 2706 1416 
z
" transform="scale(0.015625)"/>
       </defs>
       <use xlink:href="#LiberationSans-30"/>
       <use xlink:href="#LiberationSans-2e" x="55.615234"/>
       <use xlink:href="#LiberationSans-36" x="83.398438"/>
      </g>
     </g>
    </g>
    <g id="xtick_5">
     <g id="line2d_9">
      <path d="M 451.254625 385.215 
L 451.254625 24.795 
" clip-path="url(#pdde7050f08)" style="fill: none; stroke: #cccccc; stroke-width: 0.8; stroke-linecap: round"/>
     </g>
     <g id="line2d_10"/>
     <g id="text_5">
      <!-- 0.8 -->
      <g style="fill: #262626" transform="translate(442.914625 397.41125) scale(0.12 -0.12)">
       <defs>
        <path id="LiberationSans-38" d="M 3281 1228 
Q 3281 619 2893 278 
Q 2506 -63 1781 -63 
Q 1075 -63 676 271 
Q 278 606 278 1222 
Q 278 1653 525 1947 
Q 772 2241 1156 2303 
L 1156 2316 
Q 797 2400 589 2681 
Q 381 2963 381 3341 
Q 381 3844 757 4156 
Q 1134 4469 1769 4469 
Q 2419 4469 2795 4162 
Q 3172 3856 3172 3334 
Q 3172 2956 2962 2675 
Q 2753 2394 2391 2322 
L 2391 2309 
Q 2813 2241 3047 1952 
Q 3281 1663 3281 1228 
z
M 2588 3303 
Q 2588 4050 1769 4050 
Q 1372 4050 1164 3862 
Q 956 3675 956 3303 
Q 956 2925 1170 2726 
Q 1384 2528 1775 2528 
Q 2172 2528 2380 2711 
Q 2588 2894 2588 3303 
z
M 2697 1281 
Q 2697 1691 2453 1898 
Q 2209 2106 1769 2106 
Q 1341 2106 1100 1882 
Q 859 1659 859 1269 
Q 859 359 1788 359 
Q 2247 359 2472 579 
Q 2697 800 2697 1281 
z
" transform="scale(0.015625)"/>
       </defs>
       <use xlink:href="#LiberationSans-30"/>
       <use xlink:href="#LiberationSans-2e" x="55.615234"/>
       <use xlink:href="#LiberationSans-38" x="83.398438"/>
      </g>
     </g>
    </g>
    <g id="xtick_6">
     <g id="line2d_11">
      <path d="M 552.960625 385.215 
L 552.960625 24.795 
" clip-path="url(#pdde7050f08)" style="fill: none; stroke: #cccccc; stroke-width: 0.8; stroke-linecap: round"/>
     </g>
     <g id="line2d_12"/>
     <g id="text_6">
      <!-- 1.0 -->
      <g style="fill: #262626" transform="translate(544.620625 397.41125) scale(0.12 -0.12)">
       <defs>
        <path id="LiberationSans-31" d="M 488 0 
L 488 478 
L 1609 478 
L 1609 3866 
L 616 3156 
L 616 3688 
L 1656 4403 
L 2175 4403 
L 2175 478 
L 3247 478 
L 3247 0 
L 488 0 
z
" transform="scale(0.015625)"/>
       </defs>
       <use xlink:href="#LiberationSans-31"/>
       <use xlink:href="#LiberationSans-2e" x="55.615234"/>
       <use xlink:href="#LiberationSans-30" x="83.398438"/>
      </g>
     </g>
    </g>
    <g id="text_7">
     <!-- False Positive Rate -->
     <g style="fill: #262626" transform="translate(238.395 414.046875) scale(0.14 -0.14)">
      <defs>
       <path id="LiberationSans-46" d="M 1122 3916 
L 1122 2278 
L 3578 2278 
L 3578 1784 
L 1122 1784 
L 1122 0 
L 525 0 
L 525 4403 
L 3653 4403 
L 3653 3916 
L 1122 3916 
z
" transform="scale(0.015625)"/>
       <path id="LiberationSans-61" d="M 1294 -63 
Q 784 -63 528 206 
Q 272 475 272 944 
Q 272 1469 617 1750 
Q 963 2031 1731 2050 
L 2491 2063 
L 2491 2247 
Q 2491 2659 2316 2837 
Q 2141 3016 1766 3016 
Q 1388 3016 1216 2887 
Q 1044 2759 1009 2478 
L 422 2531 
Q 566 3444 1778 3444 
Q 2416 3444 2737 3151 
Q 3059 2859 3059 2306 
L 3059 850 
Q 3059 600 3125 473 
Q 3191 347 3375 347 
Q 3456 347 3559 369 
L 3559 19 
Q 3347 -31 3125 -31 
Q 2813 -31 2670 133 
Q 2528 297 2509 647 
L 2491 647 
Q 2275 259 1989 98 
Q 1703 -63 1294 -63 
z
M 1422 359 
Q 1731 359 1972 500 
Q 2213 641 2352 886 
Q 2491 1131 2491 1391 
L 2491 1669 
L 1875 1656 
Q 1478 1650 1273 1575 
Q 1069 1500 959 1344 
Q 850 1188 850 934 
Q 850 659 998 509 
Q 1147 359 1422 359 
z
" transform="scale(0.015625)"/>
       <path id="LiberationSans-6c" d="M 431 0 
L 431 4638 
L 994 4638 
L 994 0 
L 431 0 
z
" transform="scale(0.015625)"/>
       <path id="LiberationSans-73" d="M 2969 934 
Q 2969 456 2608 196 
Q 2247 -63 1597 -63 
Q 966 -63 623 145 
Q 281 353 178 794 
L 675 891 
Q 747 619 972 492 
Q 1197 366 1597 366 
Q 2025 366 2223 497 
Q 2422 628 2422 891 
Q 2422 1091 2284 1216 
Q 2147 1341 1841 1422 
L 1438 1528 
Q 953 1653 748 1773 
Q 544 1894 428 2066 
Q 313 2238 313 2488 
Q 313 2950 642 3192 
Q 972 3434 1603 3434 
Q 2163 3434 2492 3237 
Q 2822 3041 2909 2606 
L 2403 2544 
Q 2356 2769 2151 2889 
Q 1947 3009 1603 3009 
Q 1222 3009 1040 2893 
Q 859 2778 859 2544 
Q 859 2400 934 2306 
Q 1009 2213 1156 2147 
Q 1303 2081 1775 1966 
Q 2222 1853 2419 1758 
Q 2616 1663 2730 1547 
Q 2844 1431 2906 1279 
Q 2969 1128 2969 934 
z
" transform="scale(0.015625)"/>
       <path id="LiberationSans-65" d="M 863 1572 
Q 863 991 1103 675 
Q 1344 359 1806 359 
Q 2172 359 2392 506 
Q 2613 653 2691 878 
L 3184 738 
Q 2881 -63 1806 -63 
Q 1056 -63 664 384 
Q 272 831 272 1713 
Q 272 2550 664 2997 
Q 1056 3444 1784 3444 
Q 3275 3444 3275 1647 
L 3275 1572 
L 863 1572 
z
M 2694 2003 
Q 2647 2538 2422 2783 
Q 2197 3028 1775 3028 
Q 1366 3028 1127 2754 
Q 888 2481 869 2003 
L 2694 2003 
z
" transform="scale(0.015625)"/>
       <path id="LiberationSans-20" transform="scale(0.015625)"/>
       <path id="LiberationSans-50" d="M 3931 3078 
Q 3931 2453 3523 2084 
Q 3116 1716 2416 1716 
L 1122 1716 
L 1122 0 
L 525 0 
L 525 4403 
L 2378 4403 
Q 3119 4403 3525 4056 
Q 3931 3709 3931 3078 
z
M 3331 3072 
Q 3331 3925 2306 3925 
L 1122 3925 
L 1122 2188 
L 2331 2188 
Q 3331 2188 3331 3072 
z
" transform="scale(0.015625)"/>
       <path id="LiberationSans-6f" d="M 3291 1694 
Q 3291 806 2900 371 
Q 2509 -63 1766 -63 
Q 1025 -63 647 389 
Q 269 841 269 1694 
Q 269 3444 1784 3444 
Q 2559 3444 2925 3017 
Q 3291 2591 3291 1694 
z
M 2700 1694 
Q 2700 2394 2492 2711 
Q 2284 3028 1794 3028 
Q 1300 3028 1079 2704 
Q 859 2381 859 1694 
Q 859 1025 1076 689 
Q 1294 353 1759 353 
Q 2266 353 2483 678 
Q 2700 1003 2700 1694 
z
" transform="scale(0.015625)"/>
       <path id="LiberationSans-69" d="M 428 4100 
L 428 4638 
L 991 4638 
L 991 4100 
L 428 4100 
z
M 428 0 
L 428 3381 
L 991 3381 
L 991 0 
L 428 0 
z
" transform="scale(0.015625)"/>
       <path id="LiberationSans-74" d="M 1731 25 
Q 1453 -50 1163 -50 
Q 488 -50 488 716 
L 488 2972 
L 97 2972 
L 97 3381 
L 509 3381 
L 675 4138 
L 1050 4138 
L 1050 3381 
L 1675 3381 
L 1675 2972 
L 1050 2972 
L 1050 838 
Q 1050 594 1129 495 
Q 1209 397 1406 397 
Q 1519 397 1731 441 
L 1731 25 
z
" transform="scale(0.015625)"/>
       <path id="LiberationSans-76" d="M 1916 0 
L 1250 0 
L 22 3381 
L 622 3381 
L 1366 1181 
Q 1406 1056 1581 441 
L 1691 806 
L 1813 1175 
L 2581 3381 
L 3178 3381 
L 1916 0 
z
" transform="scale(0.015625)"/>
       <path id="LiberationSans-52" d="M 3638 0 
L 2494 1828 
L 1122 1828 
L 1122 0 
L 525 0 
L 525 4403 
L 2597 4403 
Q 3341 4403 3745 4070 
Q 4150 3738 4150 3144 
Q 4150 2653 3864 2318 
Q 3578 1984 3075 1897 
L 4325 0 
L 3638 0 
z
M 3550 3138 
Q 3550 3522 3289 3723 
Q 3028 3925 2538 3925 
L 1122 3925 
L 1122 2300 
L 2563 2300 
Q 3034 2300 3292 2520 
Q 3550 2741 3550 3138 
z
" transform="scale(0.015625)"/>
      </defs>
      <use xlink:href="#LiberationSans-46"/>
      <use xlink:href="#LiberationSans-61" x="61.083984"/>
      <use xlink:href="#LiberationSans-6c" x="116.699219"/>
      <use xlink:href="#LiberationSans-73" x="138.916016"/>
      <use xlink:href="#LiberationSans-65" x="188.916016"/>
      <use xlink:href="#LiberationSans-20" x="244.53125"/>
      <use xlink:href="#LiberationSans-50" x="272.314453"/>
      <use xlink:href="#LiberationSans-6f" x="339.013672"/>
      <use xlink:href="#LiberationSans-73" x="394.628906"/>
      <use xlink:href="#LiberationSans-69" x="444.628906"/>
      <use xlink:href="#LiberationSans-74" x="466.845703"/>
      <use xlink:href="#LiberationSans-69" x="494.628906"/>
      <use xlink:href="#LiberationSans-76" x="516.845703"/>
      <use xlink:href="#LiberationSans-65" x="566.845703"/>
      <use xlink:href="#LiberationSans-20" x="622.460938"/>
      <use xlink:href="#LiberationSans-52" x="650.244141"/>
      <use xlink:href="#LiberationSans-61" x="722.460938"/>
      <use xlink:href="#LiberationSans-74" x="778.076172"/>
      <use xlink:href="#LiberationSans-65" x="805.859375"/>
     </g>
    </g>
   </g>
   <g id="matplotlib.axis_2">
    <g id="ytick_1">
     <g id="line2d_13">
      <path d="M 44.430625 385.215 
L 552.960625 385.215 
" clip-path="url(#pdde7050f08)" style="fill: none; stroke: #cccccc; stroke-width: 0.8; stroke-linecap: round"/>
     </g>
     <g id="line2d_14"/>
     <g id="text_8">
      <!-- 0.0 -->
      <g style="fill: #262626" transform="translate(24.250625 389.563125) scale(0.12 -0.12)">
       <use xlink:href="#LiberationSans-30"/>
       <use xlink:href="#LiberationSans-2e" x="55.615234"/>
       <use xlink:href="#LiberationSans-30" x="83.398438"/>
      </g>
     </g>
    </g>
    <g id="ytick_2">
     <g id="line2d_15">
      <path d="M 44.430625 314.544412 
L 552.960625 314.544412 
" clip-path="url(#pdde7050f08)" style="fill: none; stroke: #cccccc; stroke-width: 0.8; stroke-linecap: round"/>
     </g>
     <g id="line2d_16"/>
     <g id="text_9">
      <!-- 0.2 -->
      <g style="fill: #262626" transform="translate(24.250625 318.892537) scale(0.12 -0.12)">
       <use xlink:href="#LiberationSans-30"/>
       <use xlink:href="#LiberationSans-2e" x="55.615234"/>
       <use xlink:href="#LiberationSans-32" x="83.398438"/>
      </g>
     </g>
    </g>
    <g id="ytick_3">
     <g id="line2d_17">
      <path d="M 44.430625 243.873824 
L 552.960625 243.873824 
" clip-path="url(#pdde7050f08)" style="fill: none; stroke: #cccccc; stroke-width: 0.8; stroke-linecap: round"/>
     </g>
     <g id="line2d_18"/>
     <g id="text_10">
      <!-- 0.4 -->
      <g style="fill: #262626" transform="translate(24.250625 248.221949) scale(0.12 -0.12)">
       <use xlink:href="#LiberationSans-30"/>
       <use xlink:href="#LiberationSans-2e" x="55.615234"/>
       <use xlink:href="#LiberationSans-34" x="83.398438"/>
      </g>
     </g>
    </g>
    <g id="ytick_4">
     <g id="line2d_19">
      <path d="M 44.430625 173.203235 
L 552.960625 173.203235 
" clip-path="url(#pdde7050f08)" style="fill: none; stroke: #cccccc; stroke-width: 0.8; stroke-linecap: round"/>
     </g>
     <g id="line2d_20"/>
     <g id="text_11">
      <!-- 0.6 -->
      <g style="fill: #262626" transform="translate(24.250625 177.55136) scale(0.12 -0.12)">
       <use xlink:href="#LiberationSans-30"/>
       <use xlink:href="#LiberationSans-2e" x="55.615234"/>
       <use xlink:href="#LiberationSans-36" x="83.398438"/>
      </g>
     </g>
    </g>
    <g id="ytick_5">
     <g id="line2d_21">
      <path d="M 44.430625 102.532647 
L 552.960625 102.532647 
" clip-path="url(#pdde7050f08)" style="fill: none; stroke: #cccccc; stroke-width: 0.8; stroke-linecap: round"/>
     </g>
     <g id="line2d_22"/>
     <g id="text_12">
      <!-- 0.8 -->
      <g style="fill: #262626" transform="translate(24.250625 106.880772) scale(0.12 -0.12)">
       <use xlink:href="#LiberationSans-30"/>
       <use xlink:href="#LiberationSans-2e" x="55.615234"/>
       <use xlink:href="#LiberationSans-38" x="83.398438"/>
      </g>
     </g>
    </g>
    <g id="ytick_6">
     <g id="line2d_23">
      <path d="M 44.430625 31.862059 
L 552.960625 31.862059 
" clip-path="url(#pdde7050f08)" style="fill: none; stroke: #cccccc; stroke-width: 0.8; stroke-linecap: round"/>
     </g>
     <g id="line2d_24"/>
     <g id="text_13">
      <!-- 1.0 -->
      <g style="fill: #262626" transform="translate(24.250625 36.210184) scale(0.12 -0.12)">
       <use xlink:href="#LiberationSans-31"/>
       <use xlink:href="#LiberationSans-2e" x="55.615234"/>
       <use xlink:href="#LiberationSans-30" x="83.398438"/>
      </g>
     </g>
    </g>
    <g id="text_14">
     <!-- True Positive Rate -->
     <g style="fill: #262626" transform="translate(17.345625 262.318594) rotate(-90) scale(0.14 -0.14)">
      <defs>
       <path id="LiberationSans-54" d="M 2250 3916 
L 2250 0 
L 1656 0 
L 1656 3916 
L 144 3916 
L 144 4403 
L 3763 4403 
L 3763 3916 
L 2250 3916 
z
" transform="scale(0.015625)"/>
       <path id="LiberationSans-72" d="M 444 0 
L 444 2594 
Q 444 2950 425 3381 
L 956 3381 
Q 981 2806 981 2691 
L 994 2691 
Q 1128 3125 1303 3284 
Q 1478 3444 1797 3444 
Q 1909 3444 2025 3413 
L 2025 2897 
Q 1913 2928 1725 2928 
Q 1375 2928 1190 2626 
Q 1006 2325 1006 1763 
L 1006 0 
L 444 0 
z
" transform="scale(0.015625)"/>
       <path id="LiberationSans-75" d="M 981 3381 
L 981 1238 
Q 981 903 1047 718 
Q 1113 534 1256 453 
Q 1400 372 1678 372 
Q 2084 372 2318 650 
Q 2553 928 2553 1422 
L 2553 3381 
L 3116 3381 
L 3116 722 
Q 3116 131 3134 0 
L 2603 0 
Q 2600 16 2597 84 
Q 2594 153 2589 242 
Q 2584 331 2578 578 
L 2569 578 
Q 2375 228 2120 82 
Q 1866 -63 1488 -63 
Q 931 -63 673 214 
Q 416 491 416 1128 
L 416 3381 
L 981 3381 
z
" transform="scale(0.015625)"/>
      </defs>
      <use xlink:href="#LiberationSans-54"/>
      <use xlink:href="#LiberationSans-72" x="57.333984"/>
      <use xlink:href="#LiberationSans-75" x="90.634766"/>
      <use xlink:href="#LiberationSans-65" x="146.25"/>
      <use xlink:href="#LiberationSans-20" x="201.865234"/>
      <use xlink:href="#LiberationSans-50" x="229.648438"/>
      <use xlink:href="#LiberationSans-6f" x="296.347656"/>
      <use xlink:href="#LiberationSans-73" x="351.962891"/>
      <use xlink:href="#LiberationSans-69" x="401.962891"/>
      <use xlink:href="#LiberationSans-74" x="424.179688"/>
      <use xlink:href="#LiberationSans-69" x="451.962891"/>
      <use xlink:href="#LiberationSans-76" x="474.179688"/>
      <use xlink:href="#LiberationSans-65" x="524.179688"/>
      <use xlink:href="#LiberationSans-20" x="579.794922"/>
      <use xlink:href="#LiberationSans-52" x="607.578125"/>
      <use xlink:href="#LiberationSans-61" x="679.794922"/>
      <use xlink:href="#LiberationSans-74" x="735.410156"/>
      <use xlink:href="#LiberationSans-65" x="763.193359"/>
     </g>
    </g>
   </g>
   <g id="PolyCollection_1">
    <defs>
     <path id="m14dfb4b64f" d="M 44.430625 -38.936875 
L 44.430625 -38.936875 
L 44.430625 -39.065742 
L 44.430625 -39.065742 
L 44.430625 -39.838943 
L 44.430625 -39.838943 
L 44.430625 -40.096677 
L 44.430625 -40.096677 
L 44.430625 -40.483277 
L 44.430625 -40.483277 
L 44.430625 -41.900813 
L 44.430625 -41.900813 
L 44.430625 -42.158547 
L 44.430625 -42.158547 
L 44.430625 -42.545147 
L 44.430625 -42.545147 
L 44.430625 -42.802881 
L 44.430625 -42.802881 
L 44.430625 -43.060615 
L 44.430625 -43.060615 
L 44.430625 -43.318348 
L 44.430625 -43.318348 
L 44.430625 -43.833816 
L 44.430625 -43.833816 
L 44.430625 -44.607017 
L 44.430625 -44.607017 
L 44.430625 -44.864751 
L 44.430625 -44.864751 
L 44.430625 -45.122484 
L 44.430625 -45.122484 
L 44.430625 -45.895686 
L 44.430625 -45.895686 
L 44.430625 -46.153419 
L 44.430625 -46.153419 
L 44.430625 -46.668887 
L 44.430625 -46.668887 
L 44.430625 -47.442088 
L 44.430625 -47.442088 
L 44.430625 -47.957555 
L 44.430625 -47.957555 
L 44.430625 -48.215289 
L 44.430625 -48.215289 
L 44.430625 -48.344156 
L 44.430625 -48.344156 
L 44.430625 -48.60189 
L 44.430625 -48.60189 
L 44.430625 -48.730757 
L 44.430625 -48.730757 
L 44.430625 -49.632825 
L 44.430625 -49.632825 
L 44.430625 -49.890558 
L 44.430625 -49.890558 
L 44.430625 -51.05036 
L 44.430625 -51.05036 
L 44.430625 -51.179227 
L 44.430625 -51.179227 
L 44.430625 -51.436961 
L 44.430625 -51.436961 
L 44.430625 -51.565828 
L 44.430625 -51.565828 
L 44.430625 -53.756564 
L 44.430625 -53.756564 
L 44.430625 -58.138038 
L 44.430625 -58.138038 
L 44.430625 -75.663931 
L 44.430625 -75.663931 
L 44.430625 -75.792798 
L 44.430625 -75.792798 
L 44.430625 -76.050532 
L 44.430625 -76.050532 
L 44.430625 -76.308266 
L 44.430625 -76.308266 
L 44.430625 -89.066085 
L 44.430625 -89.066085 
L 44.430625 -89.323819 
L 44.430625 -89.323819 
L 44.430625 -93.963026 
L 44.430625 -93.963026 
L 44.430625 -94.091893 
L 44.430625 -94.091893 
L 44.430625 -99.762035 
L 44.430625 -99.762035 
L 44.430625 -99.890902 
L 44.430625 -99.890902 
L 44.430625 -107.107446 
L 44.430625 -107.107446 
L 44.430625 -107.36518 
L 44.430625 -107.36518 
L 44.430625 -110.973452 
L 44.430625 -110.973452 
L 44.430625 -111.360053 
L 44.430625 -111.360053 
L 44.430625 -112.133254 
L 44.430625 -112.133254 
L 44.430625 -112.390987 
L 44.430625 -112.390987 
L 44.430625 -120.5096 
L 44.430625 -120.5096 
L 44.430625 -120.638467 
L 44.430625 -120.638467 
L 44.430625 -120.896201 
L 44.430625 -120.896201 
L 44.430625 -121.025067 
L 44.430625 -121.025067 
L 44.430625 -121.669402 
L 44.430625 -121.669402 
L 44.430625 -121.927135 
L 44.430625 -121.927135 
L 44.430625 -122.056002 
L 44.430625 -122.056002 
L 44.430625 -122.700337 
L 44.430625 -122.700337 
L 44.430625 -122.829203 
L 44.430625 -122.829203 
L 44.430625 -123.602405 
L 44.430625 -123.602405 
L 44.430625 -126.050875 
L 44.430625 -126.050875 
L 44.430625 -126.566343 
L 44.430625 -126.566343 
L 44.430625 -145.638638 
L 44.430625 -145.638638 
L 44.430625 -145.896372 
L 44.430625 -145.896372 
L 44.430625 -147.700508 
L 44.430625 -147.700508 
L 44.430625 -147.829375 
L 44.430625 -147.829375 
L 44.430625 -149.762378 
L 44.430625 -149.762378 
L 44.430625 -150.793313 
L 44.430625 -150.793313 
L 44.430625 -151.695381 
L 44.430625 -151.695381 
L 44.430625 -151.953115 
L 44.430625 -151.953115 
L 44.430625 -152.339715 
L 44.430625 -152.339715 
L 44.430625 -152.468582 
L 44.430625 -152.468582 
L 44.430625 -153.757251 
L 44.430625 -153.757251 
L 44.430625 -154.917053 
L 44.430625 -154.917053 
L 44.430625 -155.303653 
L 44.430625 -155.303653 
L 44.430625 -155.561387 
L 44.430625 -155.561387 
L 44.430625 -155.819121 
L 44.430625 -155.819121 
L 44.430625 -155.947988 
L 44.430625 -155.947988 
L 44.430625 -156.463455 
L 44.430625 -156.463455 
L 44.430625 -156.592322 
L 44.430625 -156.592322 
L 44.430625 -156.850056 
L 44.430625 -156.850056 
L 44.430625 -157.107789 
L 44.430625 -157.107789 
L 44.430625 -158.138724 
L 44.430625 -158.138724 
L 44.430625 -162.520198 
L 44.430625 -162.520198 
L 44.430625 -162.649064 
L 44.430625 -162.649064 
L 44.430625 -163.164532 
L 44.430625 -163.164532 
L 44.430625 -163.293399 
L 44.430625 -163.293399 
L 44.430625 -163.808866 
L 44.430625 -163.808866 
L 44.430625 -164.582067 
L 44.430625 -164.582067 
L 44.430625 -165.097535 
L 44.430625 -165.097535 
L 44.430625 -165.484135 
L 44.430625 -165.484135 
L 44.430625 -166.12847 
L 44.430625 -166.12847 
L 44.430625 -166.257337 
L 44.430625 -166.257337 
L 44.430625 -167.546005 
L 44.430625 -167.546005 
L 44.430625 -167.674872 
L 44.430625 -167.674872 
L 44.430625 -167.932606 
L 44.430625 -167.932606 
L 44.430625 -168.319206 
L 44.430625 -168.319206 
L 44.430625 -168.448073 
L 44.430625 -168.448073 
L 44.430625 -169.994476 
L 44.430625 -169.994476 
L 44.430625 -170.252209 
L 44.430625 -170.252209 
L 44.430625 -199.891588 
L 44.430625 -199.891588 
L 44.430625 -200.664789 
L 44.430625 -200.664789 
L 44.430625 -201.05139 
L 44.430625 -201.05139 
L 44.430625 -201.695724 
L 44.430625 -201.695724 
L 44.430625 -201.824591 
L 44.430625 -201.824591 
L 44.430625 -202.211192 
L 44.430625 -202.211192 
L 44.430625 -203.242127 
L 44.430625 -203.242127 
L 44.430625 -204.144195 
L 44.430625 -204.144195 
L 44.430625 -204.401928 
L 44.430625 -204.401928 
L 44.430625 -206.979266 
L 44.430625 -206.979266 
L 44.430625 -208.010201 
L 44.430625 -208.010201 
L 44.430625 -211.618473 
L 44.430625 -211.618473 
L 44.430625 -212.391674 
L 44.430625 -212.391674 
L 44.430625 -212.520541 
L 44.430625 -212.520541 
L 44.430625 -213.036008 
L 44.430625 -213.036008 
L 44.430625 -213.293742 
L 44.430625 -213.293742 
L 44.430625 -213.551476 
L 44.430625 -213.551476 
L 44.430625 -213.680343 
L 44.430625 -213.680343 
L 44.430625 -216.902014 
L 44.430625 -216.902014 
L 44.430625 -217.288615 
L 44.430625 -217.288615 
L 44.430625 -217.417482 
L 44.430625 -217.417482 
L 44.430625 -218.31955 
L 44.430625 -218.31955 
L 44.430625 -218.448417 
L 44.430625 -218.448417 
L 44.430625 -218.963884 
L 44.430625 -218.963884 
L 44.430625 -219.221618 
L 44.430625 -219.221618 
L 44.430625 -220.76802 
L 44.430625 -220.76802 
L 44.430625 -220.896887 
L 44.430625 -220.896887 
L 44.430625 -221.670088 
L 44.430625 -221.670088 
L 44.430625 -221.927822 
L 44.430625 -221.927822 
L 44.430625 -222.314423 
L 44.430625 -222.314423 
L 44.430625 -222.443289 
L 44.430625 -222.443289 
L 44.430625 -222.701023 
L 44.430625 -222.701023 
L 44.430625 -223.216491 
L 44.430625 -223.216491 
L 44.430625 -223.345357 
L 44.430625 -223.345357 
L 44.430625 -224.118559 
L 44.430625 -224.118559 
L 44.430625 -225.149494 
L 44.430625 -225.149494 
L 44.430625 -225.27836 
L 44.430625 -225.27836 
L 44.430625 -225.793828 
L 44.430625 -225.793828 
L 44.430625 -226.180428 
L 44.430625 -226.180428 
L 44.430625 -226.309295 
L 44.430625 -226.309295 
L 44.430625 -226.567029 
L 44.430625 -226.567029 
L 44.430625 -232.752639 
L 44.430625 -232.752639 
L 44.430625 -232.881505 
L 44.430625 -232.881505 
L 44.430625 -234.427908 
L 44.430625 -234.427908 
L 44.430625 -234.556775 
L 44.430625 -234.556775 
L 44.430625 -234.943375 
L 44.430625 -234.943375 
L 44.430625 -235.329976 
L 44.430625 -235.329976 
L 44.430625 -235.716576 
L 44.430625 -235.716576 
L 44.430625 -236.232044 
L 44.430625 -236.232044 
L 44.430625 -236.360911 
L 44.430625 -236.360911 
L 44.430625 -237.391846 
L 44.430625 -237.391846 
L 44.430625 -237.649579 
L 44.430625 -237.649579 
L 44.430625 -237.778446 
L 44.430625 -237.778446 
L 44.430625 -238.03618 
L 44.430625 -238.03618 
L 44.430625 -238.165047 
L 44.430625 -238.165047 
L 44.430625 -241.128985 
L 44.430625 -241.128985 
L 44.430625 -241.902186 
L 44.430625 -241.902186 
L 44.430625 -242.031053 
L 44.430625 -242.031053 
L 44.430625 -242.804254 
L 44.430625 -242.804254 
L 44.430625 -242.933121 
L 44.430625 -242.933121 
L 44.430625 -243.706322 
L 44.430625 -243.706322 
L 44.430625 -243.964056 
L 44.430625 -243.964056 
L 44.430625 -244.350656 
L 44.430625 -244.350656 
L 44.430625 -244.60839 
L 44.430625 -244.60839 
L 44.430625 -286.361254 
L 44.430625 -286.361254 
L 44.430625 -286.747855 
L 44.430625 -286.747855 
L 44.430625 -287.521056 
L 44.430625 -287.521056 
L 44.430625 -287.649923 
L 44.430625 -287.649923 
L 44.430625 -288.16539 
L 44.430625 -288.16539 
L 44.430625 -288.423124 
L 44.430625 -288.423124 
L 44.430625 -291.387062 
L 44.430625 -291.387062 
L 44.430625 -291.773662 
L 44.430625 -291.773662 
L 44.430625 -292.031396 
L 44.430625 -292.031396 
L 44.430625 -292.28913 
L 44.430625 -292.28913 
L 44.430625 -293.191198 
L 44.430625 -293.191198 
L 44.430625 -293.320065 
L 44.430625 -293.320065 
L 44.430625 -293.706665 
L 44.430625 -293.706665 
L 44.430625 -293.964399 
L 44.430625 -293.964399 
L 44.430625 -294.479866 
L 44.430625 -294.479866 
L 44.430625 -294.7376 
L 44.430625 -294.7376 
L 44.430625 -295.510801 
L 44.430625 -295.510801 
L 44.430625 -296.541736 
L 44.430625 -296.541736 
L 44.430625 -297.186071 
L 44.430625 -297.186071 
L 44.430625 -297.443804 
L 44.430625 -297.443804 
L 44.430625 -297.830405 
L 44.430625 -297.830405 
L 44.430625 -297.959272 
L 44.430625 -297.959272 
L 44.430625 -298.217005 
L 44.430625 -298.217005 
L 44.430625 -298.474739 
L 44.430625 -298.474739 
L 44.430625 -298.86134 
L 44.430625 -298.86134 
L 44.430625 -298.990207 
L 44.430625 -298.990207 
L 44.430625 -299.24794 
L 44.430625 -299.24794 
L 44.430625 -299.376807 
L 44.430625 -299.376807 
L 44.430625 -299.634541 
L 44.430625 -299.634541 
L 44.430625 -299.892275 
L 44.430625 -299.892275 
L 44.430625 -302.340745 
L 44.430625 -302.340745 
L 44.430625 -302.856213 
L 44.430625 -302.856213 
L 44.430625 -303.113946 
L 44.430625 -303.113946 
L 44.430625 -303.887147 
L 44.430625 -303.887147 
L 44.430625 -304.016014 
L 44.430625 -304.016014 
L 44.430625 -304.273748 
L 44.430625 -304.273748 
L 44.430625 -304.402615 
L 44.430625 -304.402615 
L 44.430625 -304.918082 
L 44.430625 -304.918082 
L 44.430625 -305.82015 
L 44.430625 -305.82015 
L 44.430625 -306.335618 
L 44.430625 -306.335618 
L 44.430625 -306.464485 
L 44.430625 -306.464485 
L 44.430625 -306.979952 
L 44.430625 -306.979952 
L 44.430625 -307.753153 
L 44.430625 -307.753153 
L 44.430625 -308.010887 
L 44.430625 -308.010887 
L 44.430625 -308.655221 
L 44.430625 -308.655221 
L 44.430625 -308.912955 
L 44.430625 -308.912955 
L 44.430625 -309.299556 
L 44.430625 -309.299556 
L 44.430625 -309.428423 
L 44.430625 -309.428423 
L 44.430625 -309.686156 
L 44.430625 -309.686156 
L 44.430625 -310.330491 
L 44.430625 -310.330491 
L 44.430625 -310.845958 
L 44.430625 -310.845958 
L 44.430625 -311.361426 
L 44.430625 -311.361426 
L 44.430625 -311.490292 
L 44.430625 -311.490292 
L 44.430625 -311.748026 
L 44.430625 -311.748026 
L 44.430625 -312.134627 
L 44.430625 -312.134627 
L 44.430625 -313.938763 
L 44.430625 -313.938763 
L 44.430625 -314.06763 
L 44.430625 -314.06763 
L 44.430625 -314.45423 
L 44.430625 -314.45423 
L 44.430625 -314.840831 
L 44.430625 -314.840831 
L 44.430625 -315.356298 
L 44.430625 -315.356298 
L 44.430625 -315.871766 
L 44.430625 -315.871766 
L 44.430625 -316.1295 
L 44.430625 -316.1295 
L 44.430625 -316.258366 
L 44.430625 -316.258366 
L 44.430625 -322.315109 
L 44.430625 -322.315109 
L 44.430625 -322.443976 
L 44.430625 -322.443976 
L 44.430625 -322.830576 
L 44.430625 -322.830576 
L 44.430625 -323.08831 
L 44.430625 -323.08831 
L 44.430625 -323.732645 
L 44.430625 -323.732645 
L 44.430625 -323.990378 
L 44.430625 -323.990378 
L 44.430625 -324.119245 
L 44.430625 -324.119245 
L 44.430625 -324.376979 
L 44.430625 -324.376979 
L 44.430625 -325.15018 
L 44.430625 -325.15018 
L 44.430625 -325.407914 
L 44.430625 -325.407914 
L 44.430625 -325.665647 
L 44.430625 -325.665647 
L 44.430625 -326.052248 
L 44.430625 -326.052248 
L 44.430625 -326.567716 
L 44.430625 -326.567716 
L 44.430625 -326.825449 
L 44.430625 -326.825449 
L 44.430625 -327.21205 
L 44.430625 -327.21205 
L 44.430625 -327.469784 
L 44.430625 -327.469784 
L 44.430625 -327.856384 
L 44.430625 -327.856384 
L 44.430625 -328.242985 
L 44.430625 -328.242985 
L 44.430625 -328.500718 
L 44.430625 -328.500718 
L 44.430625 -328.887319 
L 44.430625 -328.887319 
L 44.430625 -329.402787 
L 44.430625 -329.402787 
L 44.430625 -329.789387 
L 44.430625 -329.789387 
L 44.430625 -330.047121 
L 44.430625 -330.047121 
L 44.430625 -330.175988 
L 44.430625 -330.175988 
L 44.430625 -330.691455 
L 44.430625 -330.691455 
L 44.430625 -331.206923 
L 44.430625 -331.206923 
L 44.430625 -335.072929 
L 44.430625 -335.072929 
L 44.430625 -335.201795 
L 44.430625 -335.201795 
L 44.430625 -335.717263 
L 44.430625 -335.717263 
L 44.430625 -335.84613 
L 44.430625 -335.84613 
L 44.430625 -336.103863 
L 44.430625 -336.103863 
L 44.430625 -336.490464 
L 44.430625 -336.490464 
L 44.430625 -336.748198 
L 44.430625 -336.748198 
L 44.430625 -337.005932 
L 44.430625 -337.005932 
L 44.430625 -337.134798 
L 44.430625 -337.134798 
L 44.430625 -337.392532 
L 44.430625 -337.392532 
L 44.430625 -337.521399 
L 44.430625 -337.521399 
L 44.430625 -338.2946 
L 44.430625 -338.2946 
L 44.430625 -338.810068 
L 44.430625 -338.810068 
L 44.430625 -341.129671 
L 44.616085 -341.129671 
L 44.616085 -341.645139 
L 44.616085 -341.645139 
L 44.616085 -342.031739 
L 44.616085 -342.031739 
L 44.616085 -342.160606 
L 44.616085 -342.160606 
L 44.616085 -342.41834 
L 44.616085 -342.41834 
L 44.616085 -342.547207 
L 44.616085 -342.547207 
L 44.616085 -342.933807 
L 44.616085 -342.933807 
L 44.616085 -343.062674 
L 44.616085 -343.062674 
L 44.616085 -346.026612 
L 44.616085 -346.026612 
L 44.616085 -346.542079 
L 44.616085 -346.542079 
L 44.616085 -347.057547 
L 44.616085 -347.057547 
L 44.616085 -347.573014 
L 44.616085 -347.573014 
L 44.616085 -347.701881 
L 44.616085 -347.701881 
L 44.616085 -347.959615 
L 44.616085 -347.959615 
L 44.616085 -349.763751 
L 44.616085 -349.763751 
L 44.616085 -349.892618 
L 44.616085 -349.892618 
L 44.616085 -350.279219 
L 44.616085 -350.279219 
L 44.616085 -351.05242 
L 44.616085 -351.05242 
L 44.616085 -352.985423 
L 44.616085 -352.985423 
L 44.616085 -353.243156 
L 44.616085 -353.243156 
L 44.616085 -354.402958 
L 44.616085 -354.402958 
L 44.616085 -355.433893 
L 44.616085 -355.433893 
L 44.616085 -356.593695 
L 44.616085 -356.593695 
L 44.616085 -356.722562 
L 44.616085 -356.722562 
L 44.616085 -358.01123 
L 44.987004 -358.01123 
L 44.987004 -358.268964 
L 44.987004 -358.268964 
L 44.987004 -359.6865 
L 45.543382 -359.6865 
L 45.543382 -360.717434 
L 45.543382 -360.717434 
L 45.543382 -361.232902 
L 45.543382 -361.232902 
L 45.543382 -361.361769 
L 45.543382 -361.361769 
L 45.543382 -362.006103 
L 45.543382 -362.006103 
L 45.543382 -362.13497 
L 45.543382 -362.13497 
L 45.543382 -362.263837 
L 45.728842 -362.263837 
L 45.728842 -362.263837 
L 45.914301 -362.263837 
L 45.914301 -362.392704 
L 45.914301 -362.392704 
L 45.914301 -363.552505 
L 46.28522 -363.552505 
L 46.28522 -363.810239 
L 46.47068 -363.810239 
L 46.47068 -392.289816 
L 552.960625 -392.289816 
L 552.960625 -38.936875 
L 552.960625 -38.936875 
L 46.47068 -38.936875 
L 46.47068 -38.936875 
L 46.28522 -38.936875 
L 46.28522 -38.936875 
L 45.914301 -38.936875 
L 45.914301 -38.936875 
L 45.914301 -38.936875 
L 45.914301 -38.936875 
L 45.728842 -38.936875 
L 45.728842 -38.936875 
L 45.543382 -38.936875 
L 45.543382 -38.936875 
L 45.543382 -38.936875 
L 45.543382 -38.936875 
L 45.543382 -38.936875 
L 45.543382 -38.936875 
L 45.543382 -38.936875 
L 45.543382 -38.936875 
L 45.543382 -38.936875 
L 45.543382 -38.936875 
L 45.543382 -38.936875 
L 45.543382 -38.936875 
L 44.987004 -38.936875 
L 44.987004 -38.936875 
L 44.987004 -38.936875 
L 44.987004 -38.936875 
L 44.616085 -38.936875 
L 44.616085 -38.936875 
L 44.616085 -38.936875 
L 44.616085 -38.936875 
L 44.616085 -38.936875 
L 44.616085 -38.936875 
L 44.616085 -38.936875 
L 44.616085 -38.936875 
L 44.616085 -38.936875 
L 44.616085 -38.936875 
L 44.616085 -38.936875 
L 44.616085 -38.936875 
L 44.616085 -38.936875 
L 44.616085 -38.936875 
L 44.616085 -38.936875 
L 44.616085 -38.936875 
L 44.616085 -38.936875 
L 44.616085 -38.936875 
L 44.616085 -38.936875 
L 44.616085 -38.936875 
L 44.616085 -38.936875 
L 44.616085 -38.936875 
L 44.616085 -38.936875 
L 44.616085 -38.936875 
L 44.616085 -38.936875 
L 44.616085 -38.936875 
L 44.616085 -38.936875 
L 44.616085 -38.936875 
L 44.616085 -38.936875 
L 44.616085 -38.936875 
L 44.616085 -38.936875 
L 44.616085 -38.936875 
L 44.616085 -38.936875 
L 44.616085 -38.936875 
L 44.616085 -38.936875 
L 44.616085 -38.936875 
L 44.616085 -38.936875 
L 44.616085 -38.936875 
L 44.616085 -38.936875 
L 44.616085 -38.936875 
L 44.616085 -38.936875 
L 44.616085 -38.936875 
L 44.616085 -38.936875 
L 44.616085 -38.936875 
L 44.616085 -38.936875 
L 44.616085 -38.936875 
L 44.616085 -38.936875 
L 44.616085 -38.936875 
L 44.430625 -38.936875 
L 44.430625 -38.936875 
L 44.430625 -38.936875 
L 44.430625 -38.936875 
L 44.430625 -38.936875 
L 44.430625 -38.936875 
L 44.430625 -38.936875 
L 44.430625 -38.936875 
L 44.430625 -38.936875 
L 44.430625 -38.936875 
L 44.430625 -38.936875 
L 44.430625 -38.936875 
L 44.430625 -38.936875 
L 44.430625 -38.936875 
L 44.430625 -38.936875 
L 44.430625 -38.936875 
L 44.430625 -38.936875 
L 44.430625 -38.936875 
L 44.430625 -38.936875 
L 44.430625 -38.936875 
L 44.430625 -38.936875 
L 44.430625 -38.936875 
L 44.430625 -38.936875 
L 44.430625 -38.936875 
L 44.430625 -38.936875 
L 44.430625 -38.936875 
L 44.430625 -38.936875 
L 44.430625 -38.936875 
L 44.430625 -38.936875 
L 44.430625 -38.936875 
L 44.430625 -38.936875 
L 44.430625 -38.936875 
L 44.430625 -38.936875 
L 44.430625 -38.936875 
L 44.430625 -38.936875 
L 44.430625 -38.936875 
L 44.430625 -38.936875 
L 44.430625 -38.936875 
L 44.430625 -38.936875 
L 44.430625 -38.936875 
L 44.430625 -38.936875 
L 44.430625 -38.936875 
L 44.430625 -38.936875 
L 44.430625 -38.936875 
L 44.430625 -38.936875 
L 44.430625 -38.936875 
L 44.430625 -38.936875 
L 44.430625 -38.936875 
L 44.430625 -38.936875 
L 44.430625 -38.936875 
L 44.430625 -38.936875 
L 44.430625 -38.936875 
L 44.430625 -38.936875 
L 44.430625 -38.936875 
L 44.430625 -38.936875 
L 44.430625 -38.936875 
L 44.430625 -38.936875 
L 44.430625 -38.936875 
L 44.430625 -38.936875 
L 44.430625 -38.936875 
L 44.430625 -38.936875 
L 44.430625 -38.936875 
L 44.430625 -38.936875 
L 44.430625 -38.936875 
L 44.430625 -38.936875 
L 44.430625 -38.936875 
L 44.430625 -38.936875 
L 44.430625 -38.936875 
L 44.430625 -38.936875 
L 44.430625 -38.936875 
L 44.430625 -38.936875 
L 44.430625 -38.936875 
L 44.430625 -38.936875 
L 44.430625 -38.936875 
L 44.430625 -38.936875 
L 44.430625 -38.936875 
L 44.430625 -38.936875 
L 44.430625 -38.936875 
L 44.430625 -38.936875 
L 44.430625 -38.936875 
L 44.430625 -38.936875 
L 44.430625 -38.936875 
L 44.430625 -38.936875 
L 44.430625 -38.936875 
L 44.430625 -38.936875 
L 44.430625 -38.936875 
L 44.430625 -38.936875 
L 44.430625 -38.936875 
L 44.430625 -38.936875 
L 44.430625 -38.936875 
L 44.430625 -38.936875 
L 44.430625 -38.936875 
L 44.430625 -38.936875 
L 44.430625 -38.936875 
L 44.430625 -38.936875 
L 44.430625 -38.936875 
L 44.430625 -38.936875 
L 44.430625 -38.936875 
L 44.430625 -38.936875 
L 44.430625 -38.936875 
L 44.430625 -38.936875 
L 44.430625 -38.936875 
L 44.430625 -38.936875 
L 44.430625 -38.936875 
L 44.430625 -38.936875 
L 44.430625 -38.936875 
L 44.430625 -38.936875 
L 44.430625 -38.936875 
L 44.430625 -38.936875 
L 44.430625 -38.936875 
L 44.430625 -38.936875 
L 44.430625 -38.936875 
L 44.430625 -38.936875 
L 44.430625 -38.936875 
L 44.430625 -38.936875 
L 44.430625 -38.936875 
L 44.430625 -38.936875 
L 44.430625 -38.936875 
L 44.430625 -38.936875 
L 44.430625 -38.936875 
L 44.430625 -38.936875 
L 44.430625 -38.936875 
L 44.430625 -38.936875 
L 44.430625 -38.936875 
L 44.430625 -38.936875 
L 44.430625 -38.936875 
L 44.430625 -38.936875 
L 44.430625 -38.936875 
L 44.430625 -38.936875 
L 44.430625 -38.936875 
L 44.430625 -38.936875 
L 44.430625 -38.936875 
L 44.430625 -38.936875 
L 44.430625 -38.936875 
L 44.430625 -38.936875 
L 44.430625 -38.936875 
L 44.430625 -38.936875 
L 44.430625 -38.936875 
L 44.430625 -38.936875 
L 44.430625 -38.936875 
L 44.430625 -38.936875 
L 44.430625 -38.936875 
L 44.430625 -38.936875 
L 44.430625 -38.936875 
L 44.430625 -38.936875 
L 44.430625 -38.936875 
L 44.430625 -38.936875 
L 44.430625 -38.936875 
L 44.430625 -38.936875 
L 44.430625 -38.936875 
L 44.430625 -38.936875 
L 44.430625 -38.936875 
L 44.430625 -38.936875 
L 44.430625 -38.936875 
L 44.430625 -38.936875 
L 44.430625 -38.936875 
L 44.430625 -38.936875 
L 44.430625 -38.936875 
L 44.430625 -38.936875 
L 44.430625 -38.936875 
L 44.430625 -38.936875 
L 44.430625 -38.936875 
L 44.430625 -38.936875 
L 44.430625 -38.936875 
L 44.430625 -38.936875 
L 44.430625 -38.936875 
L 44.430625 -38.936875 
L 44.430625 -38.936875 
L 44.430625 -38.936875 
L 44.430625 -38.936875 
L 44.430625 -38.936875 
L 44.430625 -38.936875 
L 44.430625 -38.936875 
L 44.430625 -38.936875 
L 44.430625 -38.936875 
L 44.430625 -38.936875 
L 44.430625 -38.936875 
L 44.430625 -38.936875 
L 44.430625 -38.936875 
L 44.430625 -38.936875 
L 44.430625 -38.936875 
L 44.430625 -38.936875 
L 44.430625 -38.936875 
L 44.430625 -38.936875 
L 44.430625 -38.936875 
L 44.430625 -38.936875 
L 44.430625 -38.936875 
L 44.430625 -38.936875 
L 44.430625 -38.936875 
L 44.430625 -38.936875 
L 44.430625 -38.936875 
L 44.430625 -38.936875 
L 44.430625 -38.936875 
L 44.430625 -38.936875 
L 44.430625 -38.936875 
L 44.430625 -38.936875 
L 44.430625 -38.936875 
L 44.430625 -38.936875 
L 44.430625 -38.936875 
L 44.430625 -38.936875 
L 44.430625 -38.936875 
L 44.430625 -38.936875 
L 44.430625 -38.936875 
L 44.430625 -38.936875 
L 44.430625 -38.936875 
L 44.430625 -38.936875 
L 44.430625 -38.936875 
L 44.430625 -38.936875 
L 44.430625 -38.936875 
L 44.430625 -38.936875 
L 44.430625 -38.936875 
L 44.430625 -38.936875 
L 44.430625 -38.936875 
L 44.430625 -38.936875 
L 44.430625 -38.936875 
L 44.430625 -38.936875 
L 44.430625 -38.936875 
L 44.430625 -38.936875 
L 44.430625 -38.936875 
L 44.430625 -38.936875 
L 44.430625 -38.936875 
L 44.430625 -38.936875 
L 44.430625 -38.936875 
L 44.430625 -38.936875 
L 44.430625 -38.936875 
L 44.430625 -38.936875 
L 44.430625 -38.936875 
L 44.430625 -38.936875 
L 44.430625 -38.936875 
L 44.430625 -38.936875 
L 44.430625 -38.936875 
L 44.430625 -38.936875 
L 44.430625 -38.936875 
L 44.430625 -38.936875 
L 44.430625 -38.936875 
L 44.430625 -38.936875 
L 44.430625 -38.936875 
L 44.430625 -38.936875 
L 44.430625 -38.936875 
L 44.430625 -38.936875 
L 44.430625 -38.936875 
L 44.430625 -38.936875 
L 44.430625 -38.936875 
L 44.430625 -38.936875 
L 44.430625 -38.936875 
L 44.430625 -38.936875 
L 44.430625 -38.936875 
L 44.430625 -38.936875 
L 44.430625 -38.936875 
L 44.430625 -38.936875 
L 44.430625 -38.936875 
L 44.430625 -38.936875 
L 44.430625 -38.936875 
L 44.430625 -38.936875 
L 44.430625 -38.936875 
L 44.430625 -38.936875 
L 44.430625 -38.936875 
L 44.430625 -38.936875 
L 44.430625 -38.936875 
L 44.430625 -38.936875 
L 44.430625 -38.936875 
L 44.430625 -38.936875 
L 44.430625 -38.936875 
L 44.430625 -38.936875 
L 44.430625 -38.936875 
L 44.430625 -38.936875 
L 44.430625 -38.936875 
L 44.430625 -38.936875 
L 44.430625 -38.936875 
L 44.430625 -38.936875 
L 44.430625 -38.936875 
L 44.430625 -38.936875 
L 44.430625 -38.936875 
L 44.430625 -38.936875 
L 44.430625 -38.936875 
L 44.430625 -38.936875 
L 44.430625 -38.936875 
L 44.430625 -38.936875 
L 44.430625 -38.936875 
L 44.430625 -38.936875 
L 44.430625 -38.936875 
L 44.430625 -38.936875 
L 44.430625 -38.936875 
L 44.430625 -38.936875 
L 44.430625 -38.936875 
L 44.430625 -38.936875 
L 44.430625 -38.936875 
L 44.430625 -38.936875 
L 44.430625 -38.936875 
L 44.430625 -38.936875 
L 44.430625 -38.936875 
L 44.430625 -38.936875 
L 44.430625 -38.936875 
L 44.430625 -38.936875 
L 44.430625 -38.936875 
L 44.430625 -38.936875 
L 44.430625 -38.936875 
L 44.430625 -38.936875 
L 44.430625 -38.936875 
L 44.430625 -38.936875 
L 44.430625 -38.936875 
L 44.430625 -38.936875 
L 44.430625 -38.936875 
L 44.430625 -38.936875 
L 44.430625 -38.936875 
L 44.430625 -38.936875 
L 44.430625 -38.936875 
L 44.430625 -38.936875 
L 44.430625 -38.936875 
L 44.430625 -38.936875 
L 44.430625 -38.936875 
L 44.430625 -38.936875 
L 44.430625 -38.936875 
L 44.430625 -38.936875 
L 44.430625 -38.936875 
L 44.430625 -38.936875 
L 44.430625 -38.936875 
L 44.430625 -38.936875 
L 44.430625 -38.936875 
L 44.430625 -38.936875 
L 44.430625 -38.936875 
L 44.430625 -38.936875 
L 44.430625 -38.936875 
L 44.430625 -38.936875 
L 44.430625 -38.936875 
L 44.430625 -38.936875 
L 44.430625 -38.936875 
L 44.430625 -38.936875 
L 44.430625 -38.936875 
L 44.430625 -38.936875 
L 44.430625 -38.936875 
L 44.430625 -38.936875 
L 44.430625 -38.936875 
L 44.430625 -38.936875 
L 44.430625 -38.936875 
L 44.430625 -38.936875 
L 44.430625 -38.936875 
L 44.430625 -38.936875 
L 44.430625 -38.936875 
L 44.430625 -38.936875 
L 44.430625 -38.936875 
L 44.430625 -38.936875 
L 44.430625 -38.936875 
L 44.430625 -38.936875 
L 44.430625 -38.936875 
L 44.430625 -38.936875 
L 44.430625 -38.936875 
L 44.430625 -38.936875 
L 44.430625 -38.936875 
L 44.430625 -38.936875 
L 44.430625 -38.936875 
L 44.430625 -38.936875 
L 44.430625 -38.936875 
L 44.430625 -38.936875 
L 44.430625 -38.936875 
L 44.430625 -38.936875 
L 44.430625 -38.936875 
L 44.430625 -38.936875 
L 44.430625 -38.936875 
L 44.430625 -38.936875 
L 44.430625 -38.936875 
L 44.430625 -38.936875 
L 44.430625 -38.936875 
L 44.430625 -38.936875 
L 44.430625 -38.936875 
L 44.430625 -38.936875 
L 44.430625 -38.936875 
L 44.430625 -38.936875 
L 44.430625 -38.936875 
L 44.430625 -38.936875 
L 44.430625 -38.936875 
L 44.430625 -38.936875 
L 44.430625 -38.936875 
L 44.430625 -38.936875 
L 44.430625 -38.936875 
L 44.430625 -38.936875 
L 44.430625 -38.936875 
L 44.430625 -38.936875 
L 44.430625 -38.936875 
L 44.430625 -38.936875 
L 44.430625 -38.936875 
L 44.430625 -38.936875 
L 44.430625 -38.936875 
L 44.430625 -38.936875 
L 44.430625 -38.936875 
L 44.430625 -38.936875 
L 44.430625 -38.936875 
L 44.430625 -38.936875 
L 44.430625 -38.936875 
L 44.430625 -38.936875 
L 44.430625 -38.936875 
L 44.430625 -38.936875 
L 44.430625 -38.936875 
L 44.430625 -38.936875 
L 44.430625 -38.936875 
L 44.430625 -38.936875 
L 44.430625 -38.936875 
L 44.430625 -38.936875 
L 44.430625 -38.936875 
L 44.430625 -38.936875 
L 44.430625 -38.936875 
L 44.430625 -38.936875 
L 44.430625 -38.936875 
L 44.430625 -38.936875 
L 44.430625 -38.936875 
L 44.430625 -38.936875 
L 44.430625 -38.936875 
L 44.430625 -38.936875 
L 44.430625 -38.936875 
L 44.430625 -38.936875 
L 44.430625 -38.936875 
L 44.430625 -38.936875 
L 44.430625 -38.936875 
L 44.430625 -38.936875 
L 44.430625 -38.936875 
L 44.430625 -38.936875 
L 44.430625 -38.936875 
L 44.430625 -38.936875 
L 44.430625 -38.936875 
L 44.430625 -38.936875 
L 44.430625 -38.936875 
L 44.430625 -38.936875 
L 44.430625 -38.936875 
L 44.430625 -38.936875 
L 44.430625 -38.936875 
L 44.430625 -38.936875 
L 44.430625 -38.936875 
L 44.430625 -38.936875 
L 44.430625 -38.936875 
L 44.430625 -38.936875 
L 44.430625 -38.936875 
L 44.430625 -38.936875 
L 44.430625 -38.936875 
L 44.430625 -38.936875 
L 44.430625 -38.936875 
L 44.430625 -38.936875 
L 44.430625 -38.936875 
L 44.430625 -38.936875 
L 44.430625 -38.936875 
L 44.430625 -38.936875 
L 44.430625 -38.936875 
L 44.430625 -38.936875 
L 44.430625 -38.936875 
L 44.430625 -38.936875 
L 44.430625 -38.936875 
L 44.430625 -38.936875 
L 44.430625 -38.936875 
L 44.430625 -38.936875 
L 44.430625 -38.936875 
L 44.430625 -38.936875 
L 44.430625 -38.936875 
L 44.430625 -38.936875 
L 44.430625 -38.936875 
L 44.430625 -38.936875 
L 44.430625 -38.936875 
L 44.430625 -38.936875 
L 44.430625 -38.936875 
L 44.430625 -38.936875 
L 44.430625 -38.936875 
L 44.430625 -38.936875 
L 44.430625 -38.936875 
L 44.430625 -38.936875 
L 44.430625 -38.936875 
L 44.430625 -38.936875 
L 44.430625 -38.936875 
L 44.430625 -38.936875 
L 44.430625 -38.936875 
L 44.430625 -38.936875 
L 44.430625 -38.936875 
L 44.430625 -38.936875 
L 44.430625 -38.936875 
L 44.430625 -38.936875 
L 44.430625 -38.936875 
L 44.430625 -38.936875 
L 44.430625 -38.936875 
L 44.430625 -38.936875 
L 44.430625 -38.936875 
L 44.430625 -38.936875 
L 44.430625 -38.936875 
L 44.430625 -38.936875 
L 44.430625 -38.936875 
L 44.430625 -38.936875 
L 44.430625 -38.936875 
L 44.430625 -38.936875 
L 44.430625 -38.936875 
L 44.430625 -38.936875 
L 44.430625 -38.936875 
L 44.430625 -38.936875 
L 44.430625 -38.936875 
L 44.430625 -38.936875 
L 44.430625 -38.936875 
L 44.430625 -38.936875 
L 44.430625 -38.936875 
L 44.430625 -38.936875 
L 44.430625 -38.936875 
L 44.430625 -38.936875 
L 44.430625 -38.936875 
L 44.430625 -38.936875 
L 44.430625 -38.936875 
L 44.430625 -38.936875 
L 44.430625 -38.936875 
L 44.430625 -38.936875 
L 44.430625 -38.936875 
L 44.430625 -38.936875 
L 44.430625 -38.936875 
L 44.430625 -38.936875 
L 44.430625 -38.936875 
L 44.430625 -38.936875 
L 44.430625 -38.936875 
L 44.430625 -38.936875 
L 44.430625 -38.936875 
L 44.430625 -38.936875 
L 44.430625 -38.936875 
L 44.430625 -38.936875 
L 44.430625 -38.936875 
L 44.430625 -38.936875 
L 44.430625 -38.936875 
L 44.430625 -38.936875 
L 44.430625 -38.936875 
L 44.430625 -38.936875 
L 44.430625 -38.936875 
L 44.430625 -38.936875 
L 44.430625 -38.936875 
L 44.430625 -38.936875 
L 44.430625 -38.936875 
L 44.430625 -38.936875 
L 44.430625 -38.936875 
L 44.430625 -38.936875 
z
" style="stroke: #1f77b4; stroke-opacity: 0.15"/>
    </defs>
    <g clip-path="url(#pdde7050f08)">
     <use xlink:href="#m14dfb4b64f" x="0" y="424.151875" style="fill: #1f77b4; fill-opacity: 0.15; stroke: #1f77b4; stroke-opacity: 0.15"/>
    </g>
   </g>
   <g id="line2d_25">
    <path d="M 44.430625 385.215 
L 44.430625 85.341807 
L 44.616085 81.733535 
L 44.616085 67.429313 
L 45.543382 64.465375 
L 45.543382 62.016905 
L 45.914301 61.759171 
L 46.47068 60.341636 
L 552.960625 31.862059 
L 552.960625 31.862059 
" clip-path="url(#pdde7050f08)" style="fill: none; stroke: #1f77b4; stroke-width: 3; stroke-linecap: round"/>
   </g>
   <g id="line2d_26">
    <path d="M 44.430625 385.215 
L 552.960625 31.862059 
" clip-path="url(#pdde7050f08)" style="fill: none; stroke-dasharray: 5.55,2.4; stroke-dashoffset: 0; stroke: #808080; stroke-width: 1.5"/>
   </g>
   <g id="patch_3">
    <path d="M 44.430625 385.215 
L 44.430625 24.795 
" style="fill: none; stroke: #cccccc; stroke-linejoin: miter; stroke-linecap: square"/>
   </g>
   <g id="patch_4">
    <path d="M 44.430625 385.215 
L 552.960625 385.215 
" style="fill: none; stroke: #cccccc; stroke-linejoin: miter; stroke-linecap: square"/>
   </g>
   <g id="text_15">
    <!-- Link Prediction ROC -->
    <g style="fill: #262626" transform="translate(220.914375 18.795) scale(0.16 -0.16)">
     <defs>
      <path id="LiberationSans-Bold-4c" d="M 428 0 
L 428 4403 
L 1350 4403 
L 1350 713 
L 3713 713 
L 3713 0 
L 428 0 
z
" transform="scale(0.015625)"/>
      <path id="LiberationSans-Bold-69" d="M 447 3991 
L 447 4638 
L 1325 4638 
L 1325 3991 
L 447 3991 
z
M 447 0 
L 447 3381 
L 1325 3381 
L 1325 0 
L 447 0 
z
" transform="scale(0.015625)"/>
      <path id="LiberationSans-Bold-6e" d="M 2638 0 
L 2638 1897 
Q 2638 2788 2034 2788 
Q 1716 2788 1520 2514 
Q 1325 2241 1325 1813 
L 1325 0 
L 447 0 
L 447 2625 
Q 447 2897 439 3070 
Q 431 3244 422 3381 
L 1259 3381 
Q 1269 3322 1284 3064 
Q 1300 2806 1300 2709 
L 1313 2709 
Q 1491 3097 1759 3272 
Q 2028 3447 2400 3447 
Q 2938 3447 3225 3115 
Q 3513 2784 3513 2147 
L 3513 0 
L 2638 0 
z
" transform="scale(0.015625)"/>
      <path id="LiberationSans-Bold-6b" d="M 2606 0 
L 1703 1531 
L 1325 1269 
L 1325 0 
L 447 0 
L 447 4638 
L 1325 4638 
L 1325 1981 
L 2531 3381 
L 3475 3381 
L 2288 2063 
L 3566 0 
L 2606 0 
z
" transform="scale(0.015625)"/>
      <path id="LiberationSans-Bold-20" transform="scale(0.015625)"/>
      <path id="LiberationSans-Bold-50" d="M 4050 3009 
Q 4050 2584 3856 2250 
Q 3663 1916 3302 1733 
Q 2941 1550 2444 1550 
L 1350 1550 
L 1350 0 
L 428 0 
L 428 4403 
L 2406 4403 
Q 3197 4403 3623 4039 
Q 4050 3675 4050 3009 
z
M 3122 2994 
Q 3122 3688 2303 3688 
L 1350 3688 
L 1350 2259 
L 2328 2259 
Q 2709 2259 2915 2448 
Q 3122 2638 3122 2994 
z
" transform="scale(0.015625)"/>
      <path id="LiberationSans-Bold-72" d="M 447 0 
L 447 2588 
Q 447 2866 439 3052 
Q 431 3238 422 3381 
L 1259 3381 
Q 1269 3325 1284 3039 
Q 1300 2753 1300 2659 
L 1313 2659 
Q 1441 3016 1541 3161 
Q 1641 3306 1778 3376 
Q 1916 3447 2122 3447 
Q 2291 3447 2394 3400 
L 2394 2666 
Q 2181 2713 2019 2713 
Q 1691 2713 1508 2447 
Q 1325 2181 1325 1659 
L 1325 0 
L 447 0 
z
" transform="scale(0.015625)"/>
      <path id="LiberationSans-Bold-65" d="M 1831 -63 
Q 1069 -63 659 389 
Q 250 841 250 1706 
Q 250 2544 665 2994 
Q 1081 3444 1844 3444 
Q 2572 3444 2956 2961 
Q 3341 2478 3341 1547 
L 3341 1522 
L 1172 1522 
Q 1172 1028 1355 776 
Q 1538 525 1875 525 
Q 2341 525 2463 928 
L 3291 856 
Q 2931 -63 1831 -63 
z
M 1831 2891 
Q 1522 2891 1355 2675 
Q 1188 2459 1178 2072 
L 2491 2072 
Q 2466 2481 2294 2686 
Q 2122 2891 1831 2891 
z
" transform="scale(0.015625)"/>
      <path id="LiberationSans-Bold-64" d="M 2638 0 
Q 2625 47 2608 236 
Q 2591 425 2591 550 
L 2578 550 
Q 2294 -63 1497 -63 
Q 906 -63 584 398 
Q 263 859 263 1688 
Q 263 2528 602 2986 
Q 941 3444 1563 3444 
Q 1922 3444 2183 3294 
Q 2444 3144 2584 2847 
L 2591 2847 
L 2584 3403 
L 2584 4638 
L 3463 4638 
L 3463 738 
Q 3463 425 3488 0 
L 2638 0 
z
M 2597 1709 
Q 2597 2256 2414 2551 
Q 2231 2847 1875 2847 
Q 1522 2847 1350 2561 
Q 1178 2275 1178 1688 
Q 1178 538 1869 538 
Q 2216 538 2406 842 
Q 2597 1147 2597 1709 
z
" transform="scale(0.015625)"/>
      <path id="LiberationSans-Bold-63" d="M 1856 -63 
Q 1088 -63 669 395 
Q 250 853 250 1672 
Q 250 2509 672 2976 
Q 1094 3444 1869 3444 
Q 2466 3444 2856 3144 
Q 3247 2844 3347 2316 
L 2463 2272 
Q 2425 2531 2275 2686 
Q 2125 2841 1850 2841 
Q 1172 2841 1172 1706 
Q 1172 538 1863 538 
Q 2113 538 2281 695 
Q 2450 853 2491 1166 
L 3372 1125 
Q 3325 778 3123 506 
Q 2922 234 2594 85 
Q 2266 -63 1856 -63 
z
" transform="scale(0.015625)"/>
      <path id="LiberationSans-Bold-74" d="M 1313 -56 
Q 925 -56 715 155 
Q 506 366 506 794 
L 506 2788 
L 78 2788 
L 78 3381 
L 550 3381 
L 825 4175 
L 1375 4175 
L 1375 3381 
L 2016 3381 
L 2016 2788 
L 1375 2788 
L 1375 1031 
Q 1375 784 1469 667 
Q 1563 550 1759 550 
Q 1863 550 2053 594 
L 2053 50 
Q 1728 -56 1313 -56 
z
" transform="scale(0.015625)"/>
      <path id="LiberationSans-Bold-6f" d="M 3659 1694 
Q 3659 872 3203 404 
Q 2747 -63 1941 -63 
Q 1150 -63 700 406 
Q 250 875 250 1694 
Q 250 2509 700 2976 
Q 1150 3444 1959 3444 
Q 2788 3444 3223 2992 
Q 3659 2541 3659 1694 
z
M 2741 1694 
Q 2741 2297 2544 2569 
Q 2347 2841 1972 2841 
Q 1172 2841 1172 1694 
Q 1172 1128 1367 833 
Q 1563 538 1931 538 
Q 2741 538 2741 1694 
z
" transform="scale(0.015625)"/>
      <path id="LiberationSans-Bold-52" d="M 3453 0 
L 2431 1672 
L 1350 1672 
L 1350 0 
L 428 0 
L 428 4403 
L 2628 4403 
Q 3416 4403 3844 4064 
Q 4272 3725 4272 3091 
Q 4272 2628 4009 2292 
Q 3747 1956 3300 1850 
L 4491 0 
L 3453 0 
z
M 3344 3053 
Q 3344 3688 2531 3688 
L 1350 3688 
L 1350 2388 
L 2556 2388 
Q 2944 2388 3144 2563 
Q 3344 2738 3344 3053 
z
" transform="scale(0.015625)"/>
      <path id="LiberationSans-Bold-4f" d="M 4709 2222 
Q 4709 1534 4437 1012 
Q 4166 491 3659 214 
Q 3153 -63 2478 -63 
Q 1441 -63 852 548 
Q 263 1159 263 2222 
Q 263 3281 850 3875 
Q 1438 4469 2484 4469 
Q 3531 4469 4120 3869 
Q 4709 3269 4709 2222 
z
M 3769 2222 
Q 3769 2934 3431 3339 
Q 3094 3744 2484 3744 
Q 1866 3744 1528 3342 
Q 1191 2941 1191 2222 
Q 1191 1497 1536 1080 
Q 1881 663 2478 663 
Q 3097 663 3433 1069 
Q 3769 1475 3769 2222 
z
" transform="scale(0.015625)"/>
      <path id="LiberationSans-Bold-43" d="M 2484 663 
Q 3319 663 3644 1500 
L 4447 1197 
Q 4188 559 3686 248 
Q 3184 -63 2484 -63 
Q 1422 -63 842 539 
Q 263 1141 263 2222 
Q 263 3306 822 3887 
Q 1381 4469 2444 4469 
Q 3219 4469 3706 4158 
Q 4194 3847 4391 3244 
L 3578 3022 
Q 3475 3353 3173 3548 
Q 2872 3744 2463 3744 
Q 1838 3744 1514 3356 
Q 1191 2969 1191 2222 
Q 1191 1463 1523 1063 
Q 1856 663 2484 663 
z
" transform="scale(0.015625)"/>
     </defs>
     <use xlink:href="#LiberationSans-Bold-4c"/>
     <use xlink:href="#LiberationSans-Bold-69" x="61.083984"/>
     <use xlink:href="#LiberationSans-Bold-6e" x="88.867188"/>
     <use xlink:href="#LiberationSans-Bold-6b" x="149.951172"/>
     <use xlink:href="#LiberationSans-Bold-20" x="205.566406"/>
     <use xlink:href="#LiberationSans-Bold-50" x="233.349609"/>
     <use xlink:href="#LiberationSans-Bold-72" x="300.048828"/>
     <use xlink:href="#LiberationSans-Bold-65" x="338.964844"/>
     <use xlink:href="#LiberationSans-Bold-64" x="394.580078"/>
     <use xlink:href="#LiberationSans-Bold-69" x="455.664062"/>
     <use xlink:href="#LiberationSans-Bold-63" x="483.447266"/>
     <use xlink:href="#LiberationSans-Bold-74" x="539.0625"/>
     <use xlink:href="#LiberationSans-Bold-69" x="572.363281"/>
     <use xlink:href="#LiberationSans-Bold-6f" x="600.146484"/>
     <use xlink:href="#LiberationSans-Bold-6e" x="661.230469"/>
     <use xlink:href="#LiberationSans-Bold-20" x="722.314453"/>
     <use xlink:href="#LiberationSans-Bold-52" x="750.097656"/>
     <use xlink:href="#LiberationSans-Bold-4f" x="822.314453"/>
     <use xlink:href="#LiberationSans-Bold-43" x="900.097656"/>
    </g>
   </g>
   <g id="legend_1">
    <g id="patch_5">
     <path d="M 424.768437 380.215 
L 545.960625 380.215 
Q 547.960625 380.215 547.960625 378.215 
L 547.960625 350.57125 
Q 547.960625 348.57125 545.960625 348.57125 
L 424.768437 348.57125 
Q 422.768437 348.57125 422.768437 350.57125 
L 422.768437 378.215 
Q 422.768437 380.215 424.768437 380.215 
z
" style="fill: #ffffff; opacity: 0.8; stroke: #cccccc; stroke-linejoin: miter"/>
    </g>
    <g id="line2d_27">
     <path d="M 426.768437 356.318125 
L 436.768437 356.318125 
L 446.768437 356.318125 
" style="fill: none; stroke: #1f77b4; stroke-width: 3; stroke-linecap: round"/>
    </g>
    <g id="text_16">
     <!-- ROC (AUC = 0.959) -->
     <g style="fill: #262626" transform="translate(454.768437 359.818125) scale(0.1 -0.1)">
      <defs>
       <path id="LiberationSans-4f" d="M 4672 2222 
Q 4672 1531 4408 1012 
Q 4144 494 3650 215 
Q 3156 -63 2484 -63 
Q 1806 -63 1314 212 
Q 822 488 562 1008 
Q 303 1528 303 2222 
Q 303 3278 881 3873 
Q 1459 4469 2491 4469 
Q 3163 4469 3656 4201 
Q 4150 3934 4411 3425 
Q 4672 2916 4672 2222 
z
M 4063 2222 
Q 4063 3044 3652 3512 
Q 3241 3981 2491 3981 
Q 1734 3981 1321 3518 
Q 909 3056 909 2222 
Q 909 1394 1326 908 
Q 1744 422 2484 422 
Q 3247 422 3655 892 
Q 4063 1363 4063 2222 
z
" transform="scale(0.015625)"/>
       <path id="LiberationSans-43" d="M 2475 3981 
Q 1744 3981 1337 3511 
Q 931 3041 931 2222 
Q 931 1413 1354 920 
Q 1778 428 2500 428 
Q 3425 428 3891 1344 
L 4378 1100 
Q 4106 531 3614 234 
Q 3122 -63 2472 -63 
Q 1806 -63 1320 214 
Q 834 491 579 1005 
Q 325 1519 325 2222 
Q 325 3275 894 3872 
Q 1463 4469 2469 4469 
Q 3172 4469 3644 4194 
Q 4116 3919 4338 3378 
L 3772 3191 
Q 3619 3575 3280 3778 
Q 2941 3981 2475 3981 
z
" transform="scale(0.015625)"/>
       <path id="LiberationSans-28" d="M 397 1663 
Q 397 2566 680 3284 
Q 963 4003 1550 4638 
L 2094 4638 
Q 1509 3988 1236 3256 
Q 963 2525 963 1656 
Q 963 791 1233 62 
Q 1503 -666 2094 -1325 
L 1550 -1325 
Q 959 -688 678 32 
Q 397 753 397 1650 
L 397 1663 
z
" transform="scale(0.015625)"/>
       <path id="LiberationSans-41" d="M 3647 0 
L 3144 1288 
L 1138 1288 
L 631 0 
L 13 0 
L 1809 4403 
L 2488 4403 
L 4256 0 
L 3647 0 
z
M 2141 3953 
L 2113 3866 
Q 2034 3606 1881 3200 
L 1319 1753 
L 2966 1753 
L 2400 3206 
Q 2313 3422 2225 3694 
L 2141 3953 
z
" transform="scale(0.015625)"/>
       <path id="LiberationSans-55" d="M 2284 -63 
Q 1744 -63 1341 134 
Q 938 331 716 706 
Q 494 1081 494 1600 
L 494 4403 
L 1091 4403 
L 1091 1650 
Q 1091 1047 1397 734 
Q 1703 422 2281 422 
Q 2875 422 3204 745 
Q 3534 1069 3534 1691 
L 3534 4403 
L 4128 4403 
L 4128 1656 
Q 4128 1122 3901 734 
Q 3675 347 3261 142 
Q 2847 -63 2284 -63 
z
" transform="scale(0.015625)"/>
       <path id="LiberationSans-3d" d="M 313 2675 
L 313 3138 
L 3422 3138 
L 3422 2675 
L 313 2675 
z
M 313 1075 
L 313 1538 
L 3422 1538 
L 3422 1075 
L 313 1075 
z
" transform="scale(0.015625)"/>
       <path id="LiberationSans-39" d="M 3256 2291 
Q 3256 1156 2842 546 
Q 2428 -63 1663 -63 
Q 1147 -63 836 154 
Q 525 372 391 856 
L 928 941 
Q 1097 391 1672 391 
Q 2156 391 2422 841 
Q 2688 1291 2700 2125 
Q 2575 1844 2272 1673 
Q 1969 1503 1606 1503 
Q 1013 1503 656 1909 
Q 300 2316 300 2988 
Q 300 3678 687 4073 
Q 1075 4469 1766 4469 
Q 2500 4469 2878 3925 
Q 3256 3381 3256 2291 
z
M 2644 2834 
Q 2644 3366 2400 3689 
Q 2156 4013 1747 4013 
Q 1341 4013 1106 3736 
Q 872 3459 872 2988 
Q 872 2506 1106 2226 
Q 1341 1947 1741 1947 
Q 1984 1947 2193 2058 
Q 2403 2169 2523 2372 
Q 2644 2575 2644 2834 
z
" transform="scale(0.015625)"/>
       <path id="LiberationSans-35" d="M 3291 1434 
Q 3291 738 2877 337 
Q 2463 -63 1728 -63 
Q 1113 -63 734 206 
Q 356 475 256 984 
L 825 1050 
Q 1003 397 1741 397 
Q 2194 397 2450 670 
Q 2706 944 2706 1422 
Q 2706 1838 2448 2094 
Q 2191 2350 1753 2350 
Q 1525 2350 1328 2278 
Q 1131 2206 934 2034 
L 384 2034 
L 531 4403 
L 3034 4403 
L 3034 3925 
L 1044 3925 
L 959 2528 
Q 1325 2809 1869 2809 
Q 2519 2809 2905 2428 
Q 3291 2047 3291 1434 
z
" transform="scale(0.015625)"/>
       <path id="LiberationSans-29" d="M 1734 1650 
Q 1734 747 1451 28 
Q 1169 -691 581 -1325 
L 38 -1325 
Q 625 -669 897 57 
Q 1169 784 1169 1656 
Q 1169 2528 895 3256 
Q 622 3984 38 4638 
L 581 4638 
Q 1172 4000 1453 3279 
Q 1734 2559 1734 1663 
L 1734 1650 
z
" transform="scale(0.015625)"/>
      </defs>
      <use xlink:href="#LiberationSans-52"/>
      <use xlink:href="#LiberationSans-4f" x="72.216797"/>
      <use xlink:href="#LiberationSans-43" x="150"/>
      <use xlink:href="#LiberationSans-20" x="222.216797"/>
      <use xlink:href="#LiberationSans-28" x="250"/>
      <use xlink:href="#LiberationSans-41" x="283.300781"/>
      <use xlink:href="#LiberationSans-55" x="350"/>
      <use xlink:href="#LiberationSans-43" x="422.216797"/>
      <use xlink:href="#LiberationSans-20" x="494.433594"/>
      <use xlink:href="#LiberationSans-3d" x="522.216797"/>
      <use xlink:href="#LiberationSans-20" x="580.615234"/>
      <use xlink:href="#LiberationSans-30" x="608.398438"/>
      <use xlink:href="#LiberationSans-2e" x="664.013672"/>
      <use xlink:href="#LiberationSans-39" x="691.796875"/>
      <use xlink:href="#LiberationSans-35" x="747.412109"/>
      <use xlink:href="#LiberationSans-39" x="803.027344"/>
      <use xlink:href="#LiberationSans-29" x="858.642578"/>
     </g>
    </g>
    <g id="line2d_28">
     <path d="M 426.768437 370.64 
L 436.768437 370.64 
L 446.768437 370.64 
" style="fill: none; stroke-dasharray: 5.55,2.4; stroke-dashoffset: 0; stroke: #808080; stroke-width: 1.5"/>
    </g>
    <g id="text_17">
     <!-- Chance -->
     <g style="fill: #262626" transform="translate(454.768437 374.14) scale(0.1 -0.1)">
      <defs>
       <path id="LiberationSans-68" d="M 991 2803 
Q 1172 3134 1426 3289 
Q 1681 3444 2072 3444 
Q 2622 3444 2883 3170 
Q 3144 2897 3144 2253 
L 3144 0 
L 2578 0 
L 2578 2144 
Q 2578 2500 2512 2673 
Q 2447 2847 2297 2928 
Q 2147 3009 1881 3009 
Q 1484 3009 1245 2734 
Q 1006 2459 1006 1994 
L 1006 0 
L 444 0 
L 444 4638 
L 1006 4638 
L 1006 3431 
Q 1006 3241 995 3037 
Q 984 2834 981 2803 
L 991 2803 
z
" transform="scale(0.015625)"/>
       <path id="LiberationSans-6e" d="M 2578 0 
L 2578 2144 
Q 2578 2478 2512 2662 
Q 2447 2847 2303 2928 
Q 2159 3009 1881 3009 
Q 1475 3009 1240 2731 
Q 1006 2453 1006 1959 
L 1006 0 
L 444 0 
L 444 2659 
Q 444 3250 425 3381 
L 956 3381 
Q 959 3366 962 3297 
Q 966 3228 970 3139 
Q 975 3050 981 2803 
L 991 2803 
Q 1184 3153 1439 3298 
Q 1694 3444 2072 3444 
Q 2628 3444 2886 3167 
Q 3144 2891 3144 2253 
L 3144 0 
L 2578 0 
z
" transform="scale(0.015625)"/>
       <path id="LiberationSans-63" d="M 859 1706 
Q 859 1031 1071 706 
Q 1284 381 1713 381 
Q 2013 381 2214 543 
Q 2416 706 2463 1044 
L 3031 1006 
Q 2966 519 2616 228 
Q 2266 -63 1728 -63 
Q 1019 -63 645 385 
Q 272 834 272 1694 
Q 272 2547 647 2995 
Q 1022 3444 1722 3444 
Q 2241 3444 2583 3175 
Q 2925 2906 3013 2434 
L 2434 2391 
Q 2391 2672 2212 2837 
Q 2034 3003 1706 3003 
Q 1259 3003 1059 2706 
Q 859 2409 859 1706 
z
" transform="scale(0.015625)"/>
      </defs>
      <use xlink:href="#LiberationSans-43"/>
      <use xlink:href="#LiberationSans-68" x="72.216797"/>
      <use xlink:href="#LiberationSans-61" x="127.832031"/>
      <use xlink:href="#LiberationSans-6e" x="183.447266"/>
      <use xlink:href="#LiberationSans-63" x="239.0625"/>
      <use xlink:href="#LiberationSans-65" x="289.0625"/>
     </g>
    </g>
   </g>
  </g>
 </g>
 <defs>
  <clipPath id="pdde7050f08">
   <rect x="44.430625" y="24.795" width="508.53" height="360.42"/>
  </clipPath>
 </defs>
</svg>
