<?xml version="1.0" encoding="utf-8" standalone="no"?>
<!DOCTYPE svg PUBLIC "-//W3C//DTD SVG 1.1//EN"
  "http://www.w3.org/Graphics/SVG/1.1/DTD/svg11.dtd">
<svg xmlns:xlink="http://www.w3.org/1999/xlink" width="712.500625pt" height="568.151875pt" viewBox="0 0 712.500625 568.151875" xmlns="http://www.w3.org/2000/svg" version="1.1">
 <metadata>
  <rdf:RDF xmlns:dc="http://purl.org/dc/elements/1.1/" xmlns:cc="http://creativecommons.org/ns#" xmlns:rdf="http://www.w3.org/1999/02/22-rdf-syntax-ns#">
   <cc:Work>
    <dc:type rdf:resource="http://purl.org/dc/dcmitype/StillImage"/>
    <dc:date>2025-10-13T12:29:37.919066</dc:date>
    <dc:format>image/svg+xml</dc:format>
    <dc:creator>
     <cc:Agent>
      <dc:title>Matplotlib v3.6.3, https://matplotlib.org/</dc:title>
     </cc:Agent>
    </dc:creator>
   </cc:Work>
  </rdf:RDF>
 </metadata>
 <defs>
  <style type="text/css">*{stroke-linejoin: round; stroke-linecap: butt}</style>
 </defs>
 <g id="figure_1">
  <g id="patch_1">
   <path d="M -0 568.151875 
L 712.500625 568.151875 
L 712.500625 0 
L -0 0 
z
" style="fill: #ffffff"/>
  </g>
  <g id="axes_1">
   <g id="patch_2">
    <path d="M 44.430625 529.215 
L 696.960625 529.215 
L 696.960625 24.795 
L 44.430625 24.795 
z
" style="fill: #ffffff"/>
   </g>
   <g id="matplotlib.axis_1">
    <g id="xtick_1">
     <g id="line2d_1">
      <path d="M 44.430625 529.215 
L 44.430625 24.795 
" clip-path="url(#pa484a7297e)" style="fill: none; stroke: #cccccc; stroke-width: 0.8; stroke-linecap: round"/>
     </g>
     <g id="line2d_2"/>
     <g id="text_1">
      <!-- 0.0 -->
      <g style="fill: #262626" transform="translate(36.090625 541.41125) scale(0.12 -0.12)">
       <defs>
        <path id="LiberationSans-30" d="M 3309 2203 
Q 3309 1100 2920 518 
Q 2531 -63 1772 -63 
Q 1013 -63 631 515 
Q 250 1094 250 2203 
Q 250 3338 620 3903 
Q 991 4469 1791 4469 
Q 2569 4469 2939 3897 
Q 3309 3325 3309 2203 
z
M 2738 2203 
Q 2738 3156 2517 3584 
Q 2297 4013 1791 4013 
Q 1272 4013 1045 3591 
Q 819 3169 819 2203 
Q 819 1266 1048 831 
Q 1278 397 1778 397 
Q 2275 397 2506 840 
Q 2738 1284 2738 2203 
z
" transform="scale(0.015625)"/>
        <path id="LiberationSans-2e" d="M 584 0 
L 584 684 
L 1194 684 
L 1194 0 
L 584 0 
z
" transform="scale(0.015625)"/>
       </defs>
       <use xlink:href="#LiberationSans-30"/>
       <use xlink:href="#LiberationSans-2e" x="55.615234"/>
       <use xlink:href="#LiberationSans-30" x="83.398438"/>
      </g>
     </g>
    </g>
    <g id="xtick_2">
     <g id="line2d_3">
      <path d="M 174.936625 529.215 
L 174.936625 24.795 
" clip-path="url(#pa484a7297e)" style="fill: none; stroke: #cccccc; stroke-width: 0.8; stroke-linecap: round"/>
     </g>
     <g id="line2d_4"/>
     <g id="text_2">
      <!-- 0.2 -->
      <g style="fill: #262626" transform="translate(166.596625 541.41125) scale(0.12 -0.12)">
       <defs>
        <path id="LiberationSans-32" d="M 322 0 
L 322 397 
Q 481 763 711 1042 
Q 941 1322 1194 1548 
Q 1447 1775 1695 1969 
Q 1944 2163 2144 2356 
Q 2344 2550 2467 2762 
Q 2591 2975 2591 3244 
Q 2591 3606 2378 3806 
Q 2166 4006 1788 4006 
Q 1428 4006 1195 3811 
Q 963 3616 922 3263 
L 347 3316 
Q 409 3844 795 4156 
Q 1181 4469 1788 4469 
Q 2453 4469 2811 4155 
Q 3169 3841 3169 3263 
Q 3169 3006 3051 2753 
Q 2934 2500 2703 2247 
Q 2472 1994 1819 1463 
Q 1459 1169 1246 933 
Q 1034 697 941 478 
L 3238 478 
L 3238 0 
L 322 0 
z
" transform="scale(0.015625)"/>
       </defs>
       <use xlink:href="#LiberationSans-30"/>
       <use xlink:href="#LiberationSans-2e" x="55.615234"/>
       <use xlink:href="#LiberationSans-32" x="83.398438"/>
      </g>
     </g>
    </g>
    <g id="xtick_3">
     <g id="line2d_5">
      <path d="M 305.442625 529.215 
L 305.442625 24.795 
" clip-path="url(#pa484a7297e)" style="fill: none; stroke: #cccccc; stroke-width: 0.8; stroke-linecap: round"/>
     </g>
     <g id="line2d_6"/>
     <g id="text_3">
      <!-- 0.4 -->
      <g style="fill: #262626" transform="translate(297.102625 541.41125) scale(0.12 -0.12)">
       <defs>
        <path id="LiberationSans-34" d="M 2753 997 
L 2753 0 
L 2222 0 
L 2222 997 
L 147 997 
L 147 1434 
L 2163 4403 
L 2753 4403 
L 2753 1441 
L 3372 1441 
L 3372 997 
L 2753 997 
z
M 2222 3769 
Q 2216 3750 2134 3603 
Q 2053 3456 2013 3397 
L 884 1734 
L 716 1503 
L 666 1441 
L 2222 1441 
L 2222 3769 
z
" transform="scale(0.015625)"/>
       </defs>
       <use xlink:href="#LiberationSans-30"/>
       <use xlink:href="#LiberationSans-2e" x="55.615234"/>
       <use xlink:href="#LiberationSans-34" x="83.398438"/>
      </g>
     </g>
    </g>
    <g id="xtick_4">
     <g id="line2d_7">
      <path d="M 435.948625 529.215 
L 435.948625 24.795 
" clip-path="url(#pa484a7297e)" style="fill: none; stroke: #cccccc; stroke-width: 0.8; stroke-linecap: round"/>
     </g>
     <g id="line2d_8"/>
     <g id="text_4">
      <!-- 0.6 -->
      <g style="fill: #262626" transform="translate(427.608625 541.41125) scale(0.12 -0.12)">
       <defs>
        <path id="LiberationSans-36" d="M 3278 1441 
Q 3278 744 2900 340 
Q 2522 -63 1856 -63 
Q 1113 -63 719 490 
Q 325 1044 325 2100 
Q 325 3244 734 3856 
Q 1144 4469 1900 4469 
Q 2897 4469 3156 3572 
L 2619 3475 
Q 2453 4013 1894 4013 
Q 1413 4013 1148 3564 
Q 884 3116 884 2266 
Q 1038 2550 1316 2698 
Q 1594 2847 1953 2847 
Q 2563 2847 2920 2465 
Q 3278 2084 3278 1441 
z
M 2706 1416 
Q 2706 1894 2472 2153 
Q 2238 2413 1819 2413 
Q 1425 2413 1183 2183 
Q 941 1953 941 1550 
Q 941 1041 1192 716 
Q 1444 391 1838 391 
Q 2244 391 2475 664 
Q 2706 938 2706 1416 
z
" transform="scale(0.015625)"/>
       </defs>
       <use xlink:href="#LiberationSans-30"/>
       <use xlink:href="#LiberationSans-2e" x="55.615234"/>
       <use xlink:href="#LiberationSans-36" x="83.398438"/>
      </g>
     </g>
    </g>
    <g id="xtick_5">
     <g id="line2d_9">
      <path d="M 566.454625 529.215 
L 566.454625 24.795 
" clip-path="url(#pa484a7297e)" style="fill: none; stroke: #cccccc; stroke-width: 0.8; stroke-linecap: round"/>
     </g>
     <g id="line2d_10"/>
     <g id="text_5">
      <!-- 0.8 -->
      <g style="fill: #262626" transform="translate(558.114625 541.41125) scale(0.12 -0.12)">
       <defs>
        <path id="LiberationSans-38" d="M 3281 1228 
Q 3281 619 2893 278 
Q 2506 -63 1781 -63 
Q 1075 -63 676 271 
Q 278 606 278 1222 
Q 278 1653 525 1947 
Q 772 2241 1156 2303 
L 1156 2316 
Q 797 2400 589 2681 
Q 381 2963 381 3341 
Q 381 3844 757 4156 
Q 1134 4469 1769 4469 
Q 2419 4469 2795 4162 
Q 3172 3856 3172 3334 
Q 3172 2956 2962 2675 
Q 2753 2394 2391 2322 
L 2391 2309 
Q 2813 2241 3047 1952 
Q 3281 1663 3281 1228 
z
M 2588 3303 
Q 2588 4050 1769 4050 
Q 1372 4050 1164 3862 
Q 956 3675 956 3303 
Q 956 2925 1170 2726 
Q 1384 2528 1775 2528 
Q 2172 2528 2380 2711 
Q 2588 2894 2588 3303 
z
M 2697 1281 
Q 2697 1691 2453 1898 
Q 2209 2106 1769 2106 
Q 1341 2106 1100 1882 
Q 859 1659 859 1269 
Q 859 359 1788 359 
Q 2247 359 2472 579 
Q 2697 800 2697 1281 
z
" transform="scale(0.015625)"/>
       </defs>
       <use xlink:href="#LiberationSans-30"/>
       <use xlink:href="#LiberationSans-2e" x="55.615234"/>
       <use xlink:href="#LiberationSans-38" x="83.398438"/>
      </g>
     </g>
    </g>
    <g id="xtick_6">
     <g id="line2d_11">
      <path d="M 696.960625 529.215 
L 696.960625 24.795 
" clip-path="url(#pa484a7297e)" style="fill: none; stroke: #cccccc; stroke-width: 0.8; stroke-linecap: round"/>
     </g>
     <g id="line2d_12"/>
     <g id="text_6">
      <!-- 1.0 -->
      <g style="fill: #262626" transform="translate(688.620625 541.41125) scale(0.12 -0.12)">
       <defs>
        <path id="LiberationSans-31" d="M 488 0 
L 488 478 
L 1609 478 
L 1609 3866 
L 616 3156 
L 616 3688 
L 1656 4403 
L 2175 4403 
L 2175 478 
L 3247 478 
L 3247 0 
L 488 0 
z
" transform="scale(0.015625)"/>
       </defs>
       <use xlink:href="#LiberationSans-31"/>
       <use xlink:href="#LiberationSans-2e" x="55.615234"/>
       <use xlink:href="#LiberationSans-30" x="83.398438"/>
      </g>
     </g>
    </g>
    <g id="text_7">
     <!-- False Positive Rate -->
     <g style="fill: #262626" transform="translate(310.395 558.046875) scale(0.14 -0.14)">
      <defs>
       <path id="LiberationSans-46" d="M 1122 3916 
L 1122 2278 
L 3578 2278 
L 3578 1784 
L 1122 1784 
L 1122 0 
L 525 0 
L 525 4403 
L 3653 4403 
L 3653 3916 
L 1122 3916 
z
" transform="scale(0.015625)"/>
       <path id="LiberationSans-61" d="M 1294 -63 
Q 784 -63 528 206 
Q 272 475 272 944 
Q 272 1469 617 1750 
Q 963 2031 1731 2050 
L 2491 2063 
L 2491 2247 
Q 2491 2659 2316 2837 
Q 2141 3016 1766 3016 
Q 1388 3016 1216 2887 
Q 1044 2759 1009 2478 
L 422 2531 
Q 566 3444 1778 3444 
Q 2416 3444 2737 3151 
Q 3059 2859 3059 2306 
L 3059 850 
Q 3059 600 3125 473 
Q 3191 347 3375 347 
Q 3456 347 3559 369 
L 3559 19 
Q 3347 -31 3125 -31 
Q 2813 -31 2670 133 
Q 2528 297 2509 647 
L 2491 647 
Q 2275 259 1989 98 
Q 1703 -63 1294 -63 
z
M 1422 359 
Q 1731 359 1972 500 
Q 2213 641 2352 886 
Q 2491 1131 2491 1391 
L 2491 1669 
L 1875 1656 
Q 1478 1650 1273 1575 
Q 1069 1500 959 1344 
Q 850 1188 850 934 
Q 850 659 998 509 
Q 1147 359 1422 359 
z
" transform="scale(0.015625)"/>
       <path id="LiberationSans-6c" d="M 431 0 
L 431 4638 
L 994 4638 
L 994 0 
L 431 0 
z
" transform="scale(0.015625)"/>
       <path id="LiberationSans-73" d="M 2969 934 
Q 2969 456 2608 196 
Q 2247 -63 1597 -63 
Q 966 -63 623 145 
Q 281 353 178 794 
L 675 891 
Q 747 619 972 492 
Q 1197 366 1597 366 
Q 2025 366 2223 497 
Q 2422 628 2422 891 
Q 2422 1091 2284 1216 
Q 2147 1341 1841 1422 
L 1438 1528 
Q 953 1653 748 1773 
Q 544 1894 428 2066 
Q 313 2238 313 2488 
Q 313 2950 642 3192 
Q 972 3434 1603 3434 
Q 2163 3434 2492 3237 
Q 2822 3041 2909 2606 
L 2403 2544 
Q 2356 2769 2151 2889 
Q 1947 3009 1603 3009 
Q 1222 3009 1040 2893 
Q 859 2778 859 2544 
Q 859 2400 934 2306 
Q 1009 2213 1156 2147 
Q 1303 2081 1775 1966 
Q 2222 1853 2419 1758 
Q 2616 1663 2730 1547 
Q 2844 1431 2906 1279 
Q 2969 1128 2969 934 
z
" transform="scale(0.015625)"/>
       <path id="LiberationSans-65" d="M 863 1572 
Q 863 991 1103 675 
Q 1344 359 1806 359 
Q 2172 359 2392 506 
Q 2613 653 2691 878 
L 3184 738 
Q 2881 -63 1806 -63 
Q 1056 -63 664 384 
Q 272 831 272 1713 
Q 272 2550 664 2997 
Q 1056 3444 1784 3444 
Q 3275 3444 3275 1647 
L 3275 1572 
L 863 1572 
z
M 2694 2003 
Q 2647 2538 2422 2783 
Q 2197 3028 1775 3028 
Q 1366 3028 1127 2754 
Q 888 2481 869 2003 
L 2694 2003 
z
" transform="scale(0.015625)"/>
       <path id="LiberationSans-20" transform="scale(0.015625)"/>
       <path id="LiberationSans-50" d="M 3931 3078 
Q 3931 2453 3523 2084 
Q 3116 1716 2416 1716 
L 1122 1716 
L 1122 0 
L 525 0 
L 525 4403 
L 2378 4403 
Q 3119 4403 3525 4056 
Q 3931 3709 3931 3078 
z
M 3331 3072 
Q 3331 3925 2306 3925 
L 1122 3925 
L 1122 2188 
L 2331 2188 
Q 3331 2188 3331 3072 
z
" transform="scale(0.015625)"/>
       <path id="LiberationSans-6f" d="M 3291 1694 
Q 3291 806 2900 371 
Q 2509 -63 1766 -63 
Q 1025 -63 647 389 
Q 269 841 269 1694 
Q 269 3444 1784 3444 
Q 2559 3444 2925 3017 
Q 3291 2591 3291 1694 
z
M 2700 1694 
Q 2700 2394 2492 2711 
Q 2284 3028 1794 3028 
Q 1300 3028 1079 2704 
Q 859 2381 859 1694 
Q 859 1025 1076 689 
Q 1294 353 1759 353 
Q 2266 353 2483 678 
Q 2700 1003 2700 1694 
z
" transform="scale(0.015625)"/>
       <path id="LiberationSans-69" d="M 428 4100 
L 428 4638 
L 991 4638 
L 991 4100 
L 428 4100 
z
M 428 0 
L 428 3381 
L 991 3381 
L 991 0 
L 428 0 
z
" transform="scale(0.015625)"/>
       <path id="LiberationSans-74" d="M 1731 25 
Q 1453 -50 1163 -50 
Q 488 -50 488 716 
L 488 2972 
L 97 2972 
L 97 3381 
L 509 3381 
L 675 4138 
L 1050 4138 
L 1050 3381 
L 1675 3381 
L 1675 2972 
L 1050 2972 
L 1050 838 
Q 1050 594 1129 495 
Q 1209 397 1406 397 
Q 1519 397 1731 441 
L 1731 25 
z
" transform="scale(0.015625)"/>
       <path id="LiberationSans-76" d="M 1916 0 
L 1250 0 
L 22 3381 
L 622 3381 
L 1366 1181 
Q 1406 1056 1581 441 
L 1691 806 
L 1813 1175 
L 2581 3381 
L 3178 3381 
L 1916 0 
z
" transform="scale(0.015625)"/>
       <path id="LiberationSans-52" d="M 3638 0 
L 2494 1828 
L 1122 1828 
L 1122 0 
L 525 0 
L 525 4403 
L 2597 4403 
Q 3341 4403 3745 4070 
Q 4150 3738 4150 3144 
Q 4150 2653 3864 2318 
Q 3578 1984 3075 1897 
L 4325 0 
L 3638 0 
z
M 3550 3138 
Q 3550 3522 3289 3723 
Q 3028 3925 2538 3925 
L 1122 3925 
L 1122 2300 
L 2563 2300 
Q 3034 2300 3292 2520 
Q 3550 2741 3550 3138 
z
" transform="scale(0.015625)"/>
      </defs>
      <use xlink:href="#LiberationSans-46"/>
      <use xlink:href="#LiberationSans-61" x="61.083984"/>
      <use xlink:href="#LiberationSans-6c" x="116.699219"/>
      <use xlink:href="#LiberationSans-73" x="138.916016"/>
      <use xlink:href="#LiberationSans-65" x="188.916016"/>
      <use xlink:href="#LiberationSans-20" x="244.53125"/>
      <use xlink:href="#LiberationSans-50" x="272.314453"/>
      <use xlink:href="#LiberationSans-6f" x="339.013672"/>
      <use xlink:href="#LiberationSans-73" x="394.628906"/>
      <use xlink:href="#LiberationSans-69" x="444.628906"/>
      <use xlink:href="#LiberationSans-74" x="466.845703"/>
      <use xlink:href="#LiberationSans-69" x="494.628906"/>
      <use xlink:href="#LiberationSans-76" x="516.845703"/>
      <use xlink:href="#LiberationSans-65" x="566.845703"/>
      <use xlink:href="#LiberationSans-20" x="622.460938"/>
      <use xlink:href="#LiberationSans-52" x="650.244141"/>
      <use xlink:href="#LiberationSans-61" x="722.460938"/>
      <use xlink:href="#LiberationSans-74" x="778.076172"/>
      <use xlink:href="#LiberationSans-65" x="805.859375"/>
     </g>
    </g>
   </g>
   <g id="matplotlib.axis_2">
    <g id="ytick_1">
     <g id="line2d_13">
      <path d="M 44.430625 529.215 
L 696.960625 529.215 
" clip-path="url(#pa484a7297e)" style="fill: none; stroke: #cccccc; stroke-width: 0.8; stroke-linecap: round"/>
     </g>
     <g id="line2d_14"/>
     <g id="text_8">
      <!-- 0.0 -->
      <g style="fill: #262626" transform="translate(24.250625 533.563125) scale(0.12 -0.12)">
       <use xlink:href="#LiberationSans-30"/>
       <use xlink:href="#LiberationSans-2e" x="55.615234"/>
       <use xlink:href="#LiberationSans-30" x="83.398438"/>
      </g>
     </g>
    </g>
    <g id="ytick_2">
     <g id="line2d_15">
      <path d="M 44.430625 430.309118 
L 696.960625 430.309118 
" clip-path="url(#pa484a7297e)" style="fill: none; stroke: #cccccc; stroke-width: 0.8; stroke-linecap: round"/>
     </g>
     <g id="line2d_16"/>
     <g id="text_9">
      <!-- 0.2 -->
      <g style="fill: #262626" transform="translate(24.250625 434.657243) scale(0.12 -0.12)">
       <use xlink:href="#LiberationSans-30"/>
       <use xlink:href="#LiberationSans-2e" x="55.615234"/>
       <use xlink:href="#LiberationSans-32" x="83.398438"/>
      </g>
     </g>
    </g>
    <g id="ytick_3">
     <g id="line2d_17">
      <path d="M 44.430625 331.403235 
L 696.960625 331.403235 
" clip-path="url(#pa484a7297e)" style="fill: none; stroke: #cccccc; stroke-width: 0.8; stroke-linecap: round"/>
     </g>
     <g id="line2d_18"/>
     <g id="text_10">
      <!-- 0.4 -->
      <g style="fill: #262626" transform="translate(24.250625 335.75136) scale(0.12 -0.12)">
       <use xlink:href="#LiberationSans-30"/>
       <use xlink:href="#LiberationSans-2e" x="55.615234"/>
       <use xlink:href="#LiberationSans-34" x="83.398438"/>
      </g>
     </g>
    </g>
    <g id="ytick_4">
     <g id="line2d_19">
      <path d="M 44.430625 232.497353 
L 696.960625 232.497353 
" clip-path="url(#pa484a7297e)" style="fill: none; stroke: #cccccc; stroke-width: 0.8; stroke-linecap: round"/>
     </g>
     <g id="line2d_20"/>
     <g id="text_11">
      <!-- 0.6 -->
      <g style="fill: #262626" transform="translate(24.250625 236.845478) scale(0.12 -0.12)">
       <use xlink:href="#LiberationSans-30"/>
       <use xlink:href="#LiberationSans-2e" x="55.615234"/>
       <use xlink:href="#LiberationSans-36" x="83.398438"/>
      </g>
     </g>
    </g>
    <g id="ytick_5">
     <g id="line2d_21">
      <path d="M 44.430625 133.591471 
L 696.960625 133.591471 
" clip-path="url(#pa484a7297e)" style="fill: none; stroke: #cccccc; stroke-width: 0.8; stroke-linecap: round"/>
     </g>
     <g id="line2d_22"/>
     <g id="text_12">
      <!-- 0.8 -->
      <g style="fill: #262626" transform="translate(24.250625 137.939596) scale(0.12 -0.12)">
       <use xlink:href="#LiberationSans-30"/>
       <use xlink:href="#LiberationSans-2e" x="55.615234"/>
       <use xlink:href="#LiberationSans-38" x="83.398438"/>
      </g>
     </g>
    </g>
    <g id="ytick_6">
     <g id="line2d_23">
      <path d="M 44.430625 34.685588 
L 696.960625 34.685588 
" clip-path="url(#pa484a7297e)" style="fill: none; stroke: #cccccc; stroke-width: 0.8; stroke-linecap: round"/>
     </g>
     <g id="line2d_24"/>
     <g id="text_13">
      <!-- 1.0 -->
      <g style="fill: #262626" transform="translate(24.250625 39.033713) scale(0.12 -0.12)">
       <use xlink:href="#LiberationSans-31"/>
       <use xlink:href="#LiberationSans-2e" x="55.615234"/>
       <use xlink:href="#LiberationSans-30" x="83.398438"/>
      </g>
     </g>
    </g>
    <g id="text_14">
     <!-- True Positive Rate -->
     <g style="fill: #262626" transform="translate(17.345625 334.318594) rotate(-90) scale(0.14 -0.14)">
      <defs>
       <path id="LiberationSans-54" d="M 2250 3916 
L 2250 0 
L 1656 0 
L 1656 3916 
L 144 3916 
L 144 4403 
L 3763 4403 
L 3763 3916 
L 2250 3916 
z
" transform="scale(0.015625)"/>
       <path id="LiberationSans-72" d="M 444 0 
L 444 2594 
Q 444 2950 425 3381 
L 956 3381 
Q 981 2806 981 2691 
L 994 2691 
Q 1128 3125 1303 3284 
Q 1478 3444 1797 3444 
Q 1909 3444 2025 3413 
L 2025 2897 
Q 1913 2928 1725 2928 
Q 1375 2928 1190 2626 
Q 1006 2325 1006 1763 
L 1006 0 
L 444 0 
z
" transform="scale(0.015625)"/>
       <path id="LiberationSans-75" d="M 981 3381 
L 981 1238 
Q 981 903 1047 718 
Q 1113 534 1256 453 
Q 1400 372 1678 372 
Q 2084 372 2318 650 
Q 2553 928 2553 1422 
L 2553 3381 
L 3116 3381 
L 3116 722 
Q 3116 131 3134 0 
L 2603 0 
Q 2600 16 2597 84 
Q 2594 153 2589 242 
Q 2584 331 2578 578 
L 2569 578 
Q 2375 228 2120 82 
Q 1866 -63 1488 -63 
Q 931 -63 673 214 
Q 416 491 416 1128 
L 416 3381 
L 981 3381 
z
" transform="scale(0.015625)"/>
      </defs>
      <use xlink:href="#LiberationSans-54"/>
      <use xlink:href="#LiberationSans-72" x="57.333984"/>
      <use xlink:href="#LiberationSans-75" x="90.634766"/>
      <use xlink:href="#LiberationSans-65" x="146.25"/>
      <use xlink:href="#LiberationSans-20" x="201.865234"/>
      <use xlink:href="#LiberationSans-50" x="229.648438"/>
      <use xlink:href="#LiberationSans-6f" x="296.347656"/>
      <use xlink:href="#LiberationSans-73" x="351.962891"/>
      <use xlink:href="#LiberationSans-69" x="401.962891"/>
      <use xlink:href="#LiberationSans-74" x="424.179688"/>
      <use xlink:href="#LiberationSans-69" x="451.962891"/>
      <use xlink:href="#LiberationSans-76" x="474.179688"/>
      <use xlink:href="#LiberationSans-65" x="524.179688"/>
      <use xlink:href="#LiberationSans-20" x="579.794922"/>
      <use xlink:href="#LiberationSans-52" x="607.578125"/>
      <use xlink:href="#LiberationSans-61" x="679.794922"/>
      <use xlink:href="#LiberationSans-74" x="735.410156"/>
      <use xlink:href="#LiberationSans-65" x="763.193359"/>
     </g>
    </g>
   </g>
   <g id="PolyCollection_1">
    <defs>
     <path id="mf3b2bba28d" d="M 44.430625 -38.936875 
L 44.430625 -38.936875 
L 44.430625 -261.312792 
L 44.430625 -270.510823 
L 44.430625 -272.675065 
L 44.430625 -272.855419 
L 44.430625 -273.576833 
L 44.430625 -274.839308 
L 44.430625 -280.430268 
L 44.430625 -281.151682 
L 44.430625 -281.512389 
L 44.430625 -294.497844 
L 44.430625 -294.678197 
L 44.430625 -296.84244 
L 44.430625 -298.285268 
L 44.668601 -308.204713 
L 44.668601 -309.647541 
L 44.668601 -309.827895 
L 44.668601 -310.729663 
L 44.668601 -311.09037 
L 44.668601 -311.270723 
L 44.668601 -318.665218 
L 44.668601 -318.845572 
L 44.668601 -320.649107 
L 44.668601 -321.009814 
L 44.668601 -323.174057 
L 44.668601 -323.534764 
L 44.668601 -328.043603 
L 44.668601 -344.816482 
L 44.668601 -344.996836 
L 44.668601 -345.71825 
L 44.668601 -348.603906 
L 44.668601 -349.505674 
L 44.668601 -351.128856 
L 44.668601 -352.932391 
L 44.668601 -353.112745 
L 44.668601 -357.260876 
L 44.668601 -357.621583 
L 44.668601 -367.360675 
L 44.668601 -367.541028 
L 44.668601 -367.901735 
L 44.668601 -368.082089 
L 44.668601 -372.049867 
L 44.668601 -374.214109 
L 44.668601 -374.394463 
L 44.668601 -374.935523 
L 44.668601 -376.197998 
L 44.668601 -377.640827 
L 44.668601 -378.001534 
L 44.668601 -378.181887 
L 44.668601 -390.265575 
L 44.668601 -393.511938 
L 44.668601 -393.692292 
L 44.668601 -394.052999 
L 44.668601 -394.59406 
L 44.668601 -394.954767 
L 44.668601 -396.397595 
L 44.668601 -398.20113 
L 44.668601 -398.381484 
L 44.668601 -399.463605 
L 44.668601 -401.988555 
L 44.668601 -402.168908 
L 44.668601 -402.529615 
L 44.668601 -404.513504 
L 44.668601 -404.693858 
L 44.668601 -405.415272 
L 44.668601 -406.497393 
L 44.668601 -407.218807 
L 44.668601 -407.579515 
L 44.906577 -413.170474 
L 44.906577 -413.350828 
L 44.906577 -414.252596 
L 44.906577 -414.613303 
L 44.906577 -416.416838 
L 44.906577 -416.597192 
L 44.906577 -417.498959 
L 44.906577 -418.220374 
L 44.906577 -419.482848 
L 44.906577 -419.663202 
L 44.906577 -420.204262 
L 44.906577 -420.925677 
L 44.906577 -428.320172 
L 44.906577 -429.22194 
L 44.906577 -429.582647 
L 44.906577 -433.370071 
L 44.906577 -433.730778 
L 44.906577 -437.87891 
L 44.906577 -438.600324 
L 44.906577 -438.961031 
L 44.906577 -439.502091 
L 44.906577 -439.862799 
L 44.906577 -442.207395 
L 44.906577 -442.387748 
L 44.906577 -443.109162 
L 44.906577 -443.289516 
L 44.906577 -447.437647 
L 44.906577 -447.618001 
L 44.906577 -447.978708 
L 44.906577 -449.60189 
L 44.906577 -450.14295 
L 44.906577 -451.585779 
L 44.906577 -451.766132 
L 44.906577 -452.487546 
L 44.906577 -452.6679 
L 44.906577 -454.110728 
L 44.906577 -454.291082 
L 44.906577 -454.832143 
L 44.906577 -457.176739 
L 44.906577 -458.619567 
L 44.906577 -458.980274 
L 44.906577 -463.128405 
L 44.906577 -463.489113 
L 44.906577 -463.84982 
L 44.906577 -467.096183 
L 44.906577 -467.45689 
L 44.906577 -467.817598 
L 45.144553 -468.539012 
L 45.144553 -468.899719 
L 45.144553 -469.260426 
L 45.144553 -472.50679 
L 45.144553 -472.867497 
L 45.144553 -473.228204 
L 45.144553 -474.671032 
L 45.144553 -475.031739 
L 45.144553 -475.933507 
L 45.144553 -476.11386 
L 45.144553 -477.376335 
L 45.144553 -477.737042 
L 45.144553 -478.819164 
L 45.144553 -478.999517 
L 45.144553 -479.360224 
L 45.144553 -479.720931 
L 45.144553 -480.442345 
L 45.144553 -480.803053 
L 45.144553 -480.983406 
L 45.144553 -481.344113 
L 45.144553 -482.426234 
L 45.144553 -482.606588 
L 45.144553 -482.967295 
L 45.144553 -483.328002 
L 45.144553 -483.869063 
L 45.144553 -484.590477 
L 45.144553 -484.951184 
L 45.144553 -485.131538 
L 45.144553 -487.115427 
L 45.144553 -487.29578 
L 45.144553 -487.656487 
L 45.144553 -488.197548 
L 45.144553 -488.918962 
L 45.144553 -489.640376 
L 45.144553 -489.82073 
L 45.382529 -489.82073 
L 45.620505 -490.001083 
L 45.620505 -490.36179 
L 45.620505 -490.722497 
L 45.858481 -490.722497 
L 45.858481 -490.902851 
L 45.858481 -491.443912 
L 45.858481 -493.608154 
L 696.960625 -533.466287 
L 696.960625 -38.936875 
L 696.960625 -38.936875 
L 45.858481 -38.936875 
L 45.858481 -38.936875 
L 45.858481 -38.936875 
L 45.858481 -38.936875 
L 45.620505 -38.936875 
L 45.620505 -38.936875 
L 45.620505 -38.936875 
L 45.382529 -38.936875 
L 45.144553 -38.936875 
L 45.144553 -38.936875 
L 45.144553 -38.936875 
L 45.144553 -38.936875 
L 45.144553 -38.936875 
L 45.144553 -38.936875 
L 45.144553 -38.936875 
L 45.144553 -38.936875 
L 45.144553 -38.936875 
L 45.144553 -38.936875 
L 45.144553 -38.936875 
L 45.144553 -38.936875 
L 45.144553 -38.936875 
L 45.144553 -38.936875 
L 45.144553 -38.936875 
L 45.144553 -38.936875 
L 45.144553 -38.936875 
L 45.144553 -38.936875 
L 45.144553 -38.936875 
L 45.144553 -38.936875 
L 45.144553 -38.936875 
L 45.144553 -38.936875 
L 45.144553 -38.936875 
L 45.144553 -38.936875 
L 45.144553 -38.936875 
L 45.144553 -38.936875 
L 45.144553 -38.936875 
L 45.144553 -38.936875 
L 45.144553 -38.936875 
L 45.144553 -38.936875 
L 45.144553 -38.936875 
L 45.144553 -38.936875 
L 45.144553 -38.936875 
L 45.144553 -38.936875 
L 45.144553 -38.936875 
L 44.906577 -38.936875 
L 44.906577 -38.936875 
L 44.906577 -38.936875 
L 44.906577 -38.936875 
L 44.906577 -38.936875 
L 44.906577 -38.936875 
L 44.906577 -38.936875 
L 44.906577 -38.936875 
L 44.906577 -38.936875 
L 44.906577 -38.936875 
L 44.906577 -38.936875 
L 44.906577 -38.936875 
L 44.906577 -38.936875 
L 44.906577 -38.936875 
L 44.906577 -38.936875 
L 44.906577 -38.936875 
L 44.906577 -38.936875 
L 44.906577 -38.936875 
L 44.906577 -38.936875 
L 44.906577 -38.936875 
L 44.906577 -38.936875 
L 44.906577 -38.936875 
L 44.906577 -38.936875 
L 44.906577 -38.936875 
L 44.906577 -38.936875 
L 44.906577 -38.936875 
L 44.906577 -38.936875 
L 44.906577 -38.936875 
L 44.906577 -38.936875 
L 44.906577 -38.936875 
L 44.906577 -38.936875 
L 44.906577 -38.936875 
L 44.906577 -38.936875 
L 44.906577 -38.936875 
L 44.906577 -38.936875 
L 44.906577 -38.936875 
L 44.906577 -38.936875 
L 44.906577 -38.936875 
L 44.906577 -38.936875 
L 44.906577 -38.936875 
L 44.906577 -38.936875 
L 44.906577 -38.936875 
L 44.906577 -38.936875 
L 44.906577 -38.936875 
L 44.906577 -38.936875 
L 44.906577 -38.936875 
L 44.906577 -38.936875 
L 44.668601 -38.936875 
L 44.668601 -38.936875 
L 44.668601 -38.936875 
L 44.668601 -38.936875 
L 44.668601 -38.936875 
L 44.668601 -38.936875 
L 44.668601 -38.936875 
L 44.668601 -38.936875 
L 44.668601 -38.936875 
L 44.668601 -38.936875 
L 44.668601 -38.936875 
L 44.668601 -38.936875 
L 44.668601 -38.936875 
L 44.668601 -38.936875 
L 44.668601 -38.936875 
L 44.668601 -38.936875 
L 44.668601 -38.936875 
L 44.668601 -38.936875 
L 44.668601 -38.936875 
L 44.668601 -38.936875 
L 44.668601 -38.936875 
L 44.668601 -38.936875 
L 44.668601 -38.936875 
L 44.668601 -38.936875 
L 44.668601 -38.936875 
L 44.668601 -38.936875 
L 44.668601 -38.936875 
L 44.668601 -38.936875 
L 44.668601 -38.936875 
L 44.668601 -38.936875 
L 44.668601 -38.936875 
L 44.668601 -38.936875 
L 44.668601 -38.936875 
L 44.668601 -38.936875 
L 44.668601 -38.936875 
L 44.668601 -38.936875 
L 44.668601 -38.936875 
L 44.668601 -38.936875 
L 44.668601 -38.936875 
L 44.668601 -38.936875 
L 44.668601 -38.936875 
L 44.668601 -38.936875 
L 44.668601 -38.936875 
L 44.668601 -38.936875 
L 44.668601 -38.936875 
L 44.668601 -38.936875 
L 44.668601 -38.936875 
L 44.668601 -38.936875 
L 44.668601 -38.936875 
L 44.668601 -38.936875 
L 44.668601 -38.936875 
L 44.668601 -38.936875 
L 44.668601 -38.936875 
L 44.668601 -38.936875 
L 44.430625 -38.936875 
L 44.430625 -38.936875 
L 44.430625 -38.936875 
L 44.430625 -38.936875 
L 44.430625 -38.936875 
L 44.430625 -38.936875 
L 44.430625 -38.936875 
L 44.430625 -38.936875 
L 44.430625 -38.936875 
L 44.430625 -38.936875 
L 44.430625 -38.936875 
L 44.430625 -38.936875 
L 44.430625 -38.936875 
L 44.430625 -38.936875 
z
" style="stroke: #1f77b4; stroke-opacity: 0.2"/>
    </defs>
    <g clip-path="url(#pa484a7297e)">
     <use xlink:href="#mf3b2bba28d" x="0" y="568.151875" style="fill: #1f77b4; fill-opacity: 0.2; stroke: #1f77b4; stroke-opacity: 0.2"/>
    </g>
   </g>
   <g id="line2d_25">
    <path d="M 44.430625 529.215 
L 44.430625 269.866607 
L 44.668601 256.881152 
L 44.668601 160.57236 
L 44.906577 153.538572 
L 44.906577 100.334277 
L 45.144553 99.612863 
L 45.144553 78.331145 
L 45.382529 78.331145 
L 45.620505 78.150792 
L 45.620505 77.429378 
L 45.858481 77.429378 
L 45.858481 74.543721 
L 696.960625 34.685588 
L 696.960625 34.685588 
" clip-path="url(#pa484a7297e)" style="fill: none; stroke: #1f77b4; stroke-width: 2; stroke-linecap: round"/>
   </g>
   <g id="line2d_26">
    <path d="M 44.430625 529.215 
L 44.906577 120.533874 
L 44.906577 120.173167 
L 44.906577 119.992814 
L 44.906577 119.451753 
L 44.906577 118.730339 
L 44.906577 117.828571 
L 44.906577 113.500086 
L 44.906577 113.139379 
L 44.906577 112.959025 
L 44.906577 105.744884 
L 44.906577 105.384177 
L 44.906577 101.596752 
L 44.906577 101.416399 
L 44.906577 100.694985 
L 44.906577 99.793217 
L 45.144553 92.939782 
L 45.144553 92.579075 
L 45.144553 92.218368 
L 45.144553 91.136247 
L 45.144553 87.889883 
L 45.144553 87.70953 
L 45.144553 86.447055 
L 45.144553 86.266701 
L 45.620505 82.839984 
L 45.620505 82.11857 
L 45.620505 81.577509 
L 45.620505 79.232913 
L 45.620505 79.05256 
L 45.620505 78.691852 
L 45.620505 78.511499 
L 45.858481 77.068671 
L 45.858481 76.707963 
L 45.858481 76.166903 
L 45.858481 75.806196 
L 45.858481 75.265135 
L 45.858481 74.904428 
L 45.858481 74.543721 
L 696.960625 34.685588 
" clip-path="url(#pa484a7297e)" style="fill: none; stroke: #2ca02c; stroke-width: 2; stroke-linecap: round"/>
   </g>
   <g id="line2d_27">
    <path d="M 44.430625 529.215 
L 44.430625 154.079633 
L 44.668601 152.636805 
L 44.668601 103.580641 
L 44.906577 97.989681 
L 44.906577 82.298923 
L 45.382529 80.315034 
L 45.382529 76.707963 
L 45.620505 76.707963 
L 45.620505 74.904428 
L 45.858481 74.543721 
L 696.960625 34.685588 
L 696.960625 34.685588 
" clip-path="url(#pa484a7297e)" style="fill: none; stroke: #ff7f0e; stroke-width: 2; stroke-linecap: round"/>
   </g>
   <g id="line2d_28">
    <path d="M 44.430625 529.215 
L 696.960625 34.685588 
" clip-path="url(#pa484a7297e)" style="fill: none; stroke-dasharray: 5.55,2.4; stroke-dashoffset: 0; stroke: #808080; stroke-width: 1.5"/>
   </g>
   <g id="patch_3">
    <path d="M 44.430625 529.215 
L 44.430625 24.795 
" style="fill: none; stroke: #cccccc; stroke-linejoin: miter; stroke-linecap: square"/>
   </g>
   <g id="patch_4">
    <path d="M 44.430625 529.215 
L 696.960625 529.215 
" style="fill: none; stroke: #cccccc; stroke-linejoin: miter; stroke-linecap: square"/>
   </g>
   <g id="text_15">
    <!-- ROC Curves: Salton vs HPI vs RA -->
    <g style="fill: #262626" transform="translate(242.665625 18.795) scale(0.16 -0.16)">
     <defs>
      <path id="LiberationSans-Bold-52" d="M 3453 0 
L 2431 1672 
L 1350 1672 
L 1350 0 
L 428 0 
L 428 4403 
L 2628 4403 
Q 3416 4403 3844 4064 
Q 4272 3725 4272 3091 
Q 4272 2628 4009 2292 
Q 3747 1956 3300 1850 
L 4491 0 
L 3453 0 
z
M 3344 3053 
Q 3344 3688 2531 3688 
L 1350 3688 
L 1350 2388 
L 2556 2388 
Q 2944 2388 3144 2563 
Q 3344 2738 3344 3053 
z
" transform="scale(0.015625)"/>
      <path id="LiberationSans-Bold-4f" d="M 4709 2222 
Q 4709 1534 4437 1012 
Q 4166 491 3659 214 
Q 3153 -63 2478 -63 
Q 1441 -63 852 548 
Q 263 1159 263 2222 
Q 263 3281 850 3875 
Q 1438 4469 2484 4469 
Q 3531 4469 4120 3869 
Q 4709 3269 4709 2222 
z
M 3769 2222 
Q 3769 2934 3431 3339 
Q 3094 3744 2484 3744 
Q 1866 3744 1528 3342 
Q 1191 2941 1191 2222 
Q 1191 1497 1536 1080 
Q 1881 663 2478 663 
Q 3097 663 3433 1069 
Q 3769 1475 3769 2222 
z
" transform="scale(0.015625)"/>
      <path id="LiberationSans-Bold-43" d="M 2484 663 
Q 3319 663 3644 1500 
L 4447 1197 
Q 4188 559 3686 248 
Q 3184 -63 2484 -63 
Q 1422 -63 842 539 
Q 263 1141 263 2222 
Q 263 3306 822 3887 
Q 1381 4469 2444 4469 
Q 3219 4469 3706 4158 
Q 4194 3847 4391 3244 
L 3578 3022 
Q 3475 3353 3173 3548 
Q 2872 3744 2463 3744 
Q 1838 3744 1514 3356 
Q 1191 2969 1191 2222 
Q 1191 1463 1523 1063 
Q 1856 663 2484 663 
z
" transform="scale(0.015625)"/>
      <path id="LiberationSans-Bold-20" transform="scale(0.015625)"/>
      <path id="LiberationSans-Bold-75" d="M 1275 3381 
L 1275 1484 
Q 1275 594 1875 594 
Q 2194 594 2389 867 
Q 2584 1141 2584 1569 
L 2584 3381 
L 3463 3381 
L 3463 756 
Q 3463 325 3488 0 
L 2650 0 
Q 2613 450 2613 672 
L 2597 672 
Q 2422 288 2151 112 
Q 1881 -63 1509 -63 
Q 972 -63 684 267 
Q 397 597 397 1234 
L 397 3381 
L 1275 3381 
z
" transform="scale(0.015625)"/>
      <path id="LiberationSans-Bold-72" d="M 447 0 
L 447 2588 
Q 447 2866 439 3052 
Q 431 3238 422 3381 
L 1259 3381 
Q 1269 3325 1284 3039 
Q 1300 2753 1300 2659 
L 1313 2659 
Q 1441 3016 1541 3161 
Q 1641 3306 1778 3376 
Q 1916 3447 2122 3447 
Q 2291 3447 2394 3400 
L 2394 2666 
Q 2181 2713 2019 2713 
Q 1691 2713 1508 2447 
Q 1325 2181 1325 1659 
L 1325 0 
L 447 0 
z
" transform="scale(0.015625)"/>
      <path id="LiberationSans-Bold-76" d="M 2284 0 
L 1234 0 
L 25 3381 
L 953 3381 
L 1544 1491 
Q 1591 1334 1766 709 
Q 1797 838 1894 1159 
Q 1991 1481 2613 3381 
L 3531 3381 
L 2284 0 
z
" transform="scale(0.015625)"/>
      <path id="LiberationSans-Bold-65" d="M 1831 -63 
Q 1069 -63 659 389 
Q 250 841 250 1706 
Q 250 2544 665 2994 
Q 1081 3444 1844 3444 
Q 2572 3444 2956 2961 
Q 3341 2478 3341 1547 
L 3341 1522 
L 1172 1522 
Q 1172 1028 1355 776 
Q 1538 525 1875 525 
Q 2341 525 2463 928 
L 3291 856 
Q 2931 -63 1831 -63 
z
M 1831 2891 
Q 1522 2891 1355 2675 
Q 1188 2459 1178 2072 
L 2491 2072 
Q 2466 2481 2294 2686 
Q 2122 2891 1831 2891 
z
" transform="scale(0.015625)"/>
      <path id="LiberationSans-Bold-73" d="M 3297 988 
Q 3297 497 2895 217 
Q 2494 -63 1784 -63 
Q 1088 -63 717 157 
Q 347 378 225 844 
L 997 959 
Q 1063 719 1223 619 
Q 1384 519 1784 519 
Q 2153 519 2322 612 
Q 2491 706 2491 906 
Q 2491 1069 2355 1164 
Q 2219 1259 1894 1325 
Q 1150 1472 890 1598 
Q 631 1725 495 1926 
Q 359 2128 359 2422 
Q 359 2906 732 3176 
Q 1106 3447 1791 3447 
Q 2394 3447 2761 3212 
Q 3128 2978 3219 2534 
L 2441 2453 
Q 2403 2659 2256 2761 
Q 2109 2863 1791 2863 
Q 1478 2863 1322 2783 
Q 1166 2703 1166 2516 
Q 1166 2369 1286 2283 
Q 1406 2197 1691 2141 
Q 2088 2059 2395 1973 
Q 2703 1888 2889 1769 
Q 3075 1650 3186 1464 
Q 3297 1278 3297 988 
z
" transform="scale(0.015625)"/>
      <path id="LiberationSans-Bold-3a" d="M 616 2350 
L 616 3231 
L 1516 3231 
L 1516 2350 
L 616 2350 
z
M 616 0 
L 616 878 
L 1516 878 
L 1516 0 
L 616 0 
z
" transform="scale(0.015625)"/>
      <path id="LiberationSans-Bold-53" d="M 4019 1269 
Q 4019 622 3539 279 
Q 3059 -63 2131 -63 
Q 1284 -63 803 237 
Q 322 538 184 1147 
L 1075 1294 
Q 1166 944 1428 786 
Q 1691 628 2156 628 
Q 3122 628 3122 1216 
Q 3122 1403 3011 1525 
Q 2900 1647 2698 1728 
Q 2497 1809 1925 1925 
Q 1431 2041 1237 2111 
Q 1044 2181 887 2276 
Q 731 2372 622 2506 
Q 513 2641 452 2822 
Q 391 3003 391 3238 
Q 391 3834 839 4151 
Q 1288 4469 2144 4469 
Q 2963 4469 3373 4212 
Q 3784 3956 3903 3366 
L 3009 3244 
Q 2941 3528 2730 3672 
Q 2519 3816 2125 3816 
Q 1288 3816 1288 3291 
Q 1288 3119 1377 3009 
Q 1466 2900 1641 2823 
Q 1816 2747 2350 2631 
Q 2984 2497 3257 2383 
Q 3531 2269 3690 2117 
Q 3850 1966 3934 1755 
Q 4019 1544 4019 1269 
z
" transform="scale(0.015625)"/>
      <path id="LiberationSans-Bold-61" d="M 1228 -63 
Q 738 -63 463 204 
Q 188 472 188 956 
Q 188 1481 530 1756 
Q 872 2031 1522 2038 
L 2250 2050 
L 2250 2222 
Q 2250 2553 2134 2714 
Q 2019 2875 1756 2875 
Q 1513 2875 1398 2764 
Q 1284 2653 1256 2397 
L 341 2441 
Q 425 2934 792 3189 
Q 1159 3444 1794 3444 
Q 2434 3444 2781 3128 
Q 3128 2813 3128 2231 
L 3128 1000 
Q 3128 716 3192 608 
Q 3256 500 3406 500 
Q 3506 500 3600 519 
L 3600 44 
Q 3522 25 3459 9 
Q 3397 -6 3334 -15 
Q 3272 -25 3201 -31 
Q 3131 -38 3038 -38 
Q 2706 -38 2548 125 
Q 2391 288 2359 603 
L 2341 603 
Q 1972 -63 1228 -63 
z
M 2250 1566 
L 1800 1559 
Q 1494 1547 1366 1492 
Q 1238 1438 1170 1325 
Q 1103 1213 1103 1025 
Q 1103 784 1214 667 
Q 1325 550 1509 550 
Q 1716 550 1886 662 
Q 2056 775 2153 973 
Q 2250 1172 2250 1394 
L 2250 1566 
z
" transform="scale(0.015625)"/>
      <path id="LiberationSans-Bold-6c" d="M 447 0 
L 447 4638 
L 1325 4638 
L 1325 0 
L 447 0 
z
" transform="scale(0.015625)"/>
      <path id="LiberationSans-Bold-74" d="M 1313 -56 
Q 925 -56 715 155 
Q 506 366 506 794 
L 506 2788 
L 78 2788 
L 78 3381 
L 550 3381 
L 825 4175 
L 1375 4175 
L 1375 3381 
L 2016 3381 
L 2016 2788 
L 1375 2788 
L 1375 1031 
Q 1375 784 1469 667 
Q 1563 550 1759 550 
Q 1863 550 2053 594 
L 2053 50 
Q 1728 -56 1313 -56 
z
" transform="scale(0.015625)"/>
      <path id="LiberationSans-Bold-6f" d="M 3659 1694 
Q 3659 872 3203 404 
Q 2747 -63 1941 -63 
Q 1150 -63 700 406 
Q 250 875 250 1694 
Q 250 2509 700 2976 
Q 1150 3444 1959 3444 
Q 2788 3444 3223 2992 
Q 3659 2541 3659 1694 
z
M 2741 1694 
Q 2741 2297 2544 2569 
Q 2347 2841 1972 2841 
Q 1172 2841 1172 1694 
Q 1172 1128 1367 833 
Q 1563 538 1931 538 
Q 2741 538 2741 1694 
z
" transform="scale(0.015625)"/>
      <path id="LiberationSans-Bold-6e" d="M 2638 0 
L 2638 1897 
Q 2638 2788 2034 2788 
Q 1716 2788 1520 2514 
Q 1325 2241 1325 1813 
L 1325 0 
L 447 0 
L 447 2625 
Q 447 2897 439 3070 
Q 431 3244 422 3381 
L 1259 3381 
Q 1269 3322 1284 3064 
Q 1300 2806 1300 2709 
L 1313 2709 
Q 1491 3097 1759 3272 
Q 2028 3447 2400 3447 
Q 2938 3447 3225 3115 
Q 3513 2784 3513 2147 
L 3513 0 
L 2638 0 
z
" transform="scale(0.015625)"/>
      <path id="LiberationSans-Bold-48" d="M 3269 0 
L 3269 1888 
L 1350 1888 
L 1350 0 
L 428 0 
L 428 4403 
L 1350 4403 
L 1350 2650 
L 3269 2650 
L 3269 4403 
L 4191 4403 
L 4191 0 
L 3269 0 
z
" transform="scale(0.015625)"/>
      <path id="LiberationSans-Bold-50" d="M 4050 3009 
Q 4050 2584 3856 2250 
Q 3663 1916 3302 1733 
Q 2941 1550 2444 1550 
L 1350 1550 
L 1350 0 
L 428 0 
L 428 4403 
L 2406 4403 
Q 3197 4403 3623 4039 
Q 4050 3675 4050 3009 
z
M 3122 2994 
Q 3122 3688 2303 3688 
L 1350 3688 
L 1350 2259 
L 2328 2259 
Q 2709 2259 2915 2448 
Q 3122 2638 3122 2994 
z
" transform="scale(0.015625)"/>
      <path id="LiberationSans-Bold-49" d="M 428 0 
L 428 4403 
L 1350 4403 
L 1350 0 
L 428 0 
z
" transform="scale(0.015625)"/>
      <path id="LiberationSans-Bold-41" d="M 3541 0 
L 3150 1125 
L 1472 1125 
L 1081 0 
L 159 0 
L 1766 4403 
L 2853 4403 
L 4453 0 
L 3541 0 
z
M 2309 3725 
L 2291 3656 
Q 2259 3544 2215 3400 
Q 2172 3256 1678 1819 
L 2944 1819 
L 2509 3084 
L 2375 3509 
L 2309 3725 
z
" transform="scale(0.015625)"/>
     </defs>
     <use xlink:href="#LiberationSans-Bold-52"/>
     <use xlink:href="#LiberationSans-Bold-4f" x="72.216797"/>
     <use xlink:href="#LiberationSans-Bold-43" x="150"/>
     <use xlink:href="#LiberationSans-Bold-20" x="222.216797"/>
     <use xlink:href="#LiberationSans-Bold-43" x="250"/>
     <use xlink:href="#LiberationSans-Bold-75" x="322.216797"/>
     <use xlink:href="#LiberationSans-Bold-72" x="383.300781"/>
     <use xlink:href="#LiberationSans-Bold-76" x="422.216797"/>
     <use xlink:href="#LiberationSans-Bold-65" x="477.832031"/>
     <use xlink:href="#LiberationSans-Bold-73" x="533.447266"/>
     <use xlink:href="#LiberationSans-Bold-3a" x="589.0625"/>
     <use xlink:href="#LiberationSans-Bold-20" x="622.363281"/>
     <use xlink:href="#LiberationSans-Bold-53" x="650.146484"/>
     <use xlink:href="#LiberationSans-Bold-61" x="716.845703"/>
     <use xlink:href="#LiberationSans-Bold-6c" x="772.460938"/>
     <use xlink:href="#LiberationSans-Bold-74" x="800.244141"/>
     <use xlink:href="#LiberationSans-Bold-6f" x="833.544922"/>
     <use xlink:href="#LiberationSans-Bold-6e" x="894.628906"/>
     <use xlink:href="#LiberationSans-Bold-20" x="955.712891"/>
     <use xlink:href="#LiberationSans-Bold-76" x="983.496094"/>
     <use xlink:href="#LiberationSans-Bold-73" x="1039.111328"/>
     <use xlink:href="#LiberationSans-Bold-20" x="1094.726562"/>
     <use xlink:href="#LiberationSans-Bold-48" x="1122.509766"/>
     <use xlink:href="#LiberationSans-Bold-50" x="1194.726562"/>
     <use xlink:href="#LiberationSans-Bold-49" x="1261.425781"/>
     <use xlink:href="#LiberationSans-Bold-20" x="1289.208984"/>
     <use xlink:href="#LiberationSans-Bold-76" x="1316.992188"/>
     <use xlink:href="#LiberationSans-Bold-73" x="1372.607422"/>
     <use xlink:href="#LiberationSans-Bold-20" x="1428.222656"/>
     <use xlink:href="#LiberationSans-Bold-52" x="1456.005859"/>
     <use xlink:href="#LiberationSans-Bold-41" x="1528.222656"/>
    </g>
   </g>
   <g id="legend_1">
    <g id="patch_5">
     <path d="M 519.43875 524.215 
L 689.960625 524.215 
Q 691.960625 524.215 691.960625 522.215 
L 691.960625 465.9275 
Q 691.960625 463.9275 689.960625 463.9275 
L 519.43875 463.9275 
Q 517.43875 463.9275 517.43875 465.9275 
L 517.43875 522.215 
Q 517.43875 524.215 519.43875 524.215 
z
" style="fill: #ffffff; opacity: 0.8; stroke: #cccccc; stroke-linejoin: miter"/>
    </g>
    <g id="line2d_29">
     <path d="M 521.43875 471.674375 
L 531.43875 471.674375 
L 541.43875 471.674375 
" style="fill: none; stroke: #1f77b4; stroke-width: 2; stroke-linecap: round"/>
    </g>
    <g id="text_16">
     <!-- Weighted Salton AUC = 0.9594 -->
     <g style="fill: #262626" transform="translate(549.43875 475.174375) scale(0.1 -0.1)">
      <defs>
       <path id="LiberationSans-57" d="M 4722 0 
L 4009 0 
L 3247 2797 
Q 3172 3059 3028 3738 
Q 2947 3375 2890 3131 
Q 2834 2888 2038 0 
L 1325 0 
L 28 4403 
L 650 4403 
L 1441 1606 
Q 1581 1081 1700 525 
Q 1775 869 1873 1275 
Q 1972 1681 2741 4403 
L 3313 4403 
L 4078 1663 
Q 4253 991 4353 525 
L 4381 634 
Q 4466 994 4519 1220 
Q 4572 1447 5397 4403 
L 6019 4403 
L 4722 0 
z
" transform="scale(0.015625)"/>
       <path id="LiberationSans-67" d="M 1713 -1328 
Q 1159 -1328 831 -1111 
Q 503 -894 409 -494 
L 975 -413 
Q 1031 -647 1223 -773 
Q 1416 -900 1728 -900 
Q 2569 -900 2569 84 
L 2569 628 
L 2563 628 
Q 2403 303 2125 139 
Q 1847 -25 1475 -25 
Q 853 -25 561 387 
Q 269 800 269 1684 
Q 269 2581 583 3007 
Q 897 3434 1538 3434 
Q 1897 3434 2161 3270 
Q 2425 3106 2569 2803 
L 2575 2803 
Q 2575 2897 2587 3128 
Q 2600 3359 2613 3381 
L 3147 3381 
Q 3128 3213 3128 2681 
L 3128 97 
Q 3128 -1328 1713 -1328 
z
M 2569 1691 
Q 2569 2103 2456 2401 
Q 2344 2700 2139 2858 
Q 1934 3016 1675 3016 
Q 1244 3016 1047 2703 
Q 850 2391 850 1691 
Q 850 997 1034 694 
Q 1219 391 1666 391 
Q 1931 391 2137 547 
Q 2344 703 2456 995 
Q 2569 1288 2569 1691 
z
" transform="scale(0.015625)"/>
       <path id="LiberationSans-68" d="M 991 2803 
Q 1172 3134 1426 3289 
Q 1681 3444 2072 3444 
Q 2622 3444 2883 3170 
Q 3144 2897 3144 2253 
L 3144 0 
L 2578 0 
L 2578 2144 
Q 2578 2500 2512 2673 
Q 2447 2847 2297 2928 
Q 2147 3009 1881 3009 
Q 1484 3009 1245 2734 
Q 1006 2459 1006 1994 
L 1006 0 
L 444 0 
L 444 4638 
L 1006 4638 
L 1006 3431 
Q 1006 3241 995 3037 
Q 984 2834 981 2803 
L 991 2803 
z
" transform="scale(0.015625)"/>
       <path id="LiberationSans-64" d="M 2566 544 
Q 2409 219 2151 78 
Q 1894 -63 1513 -63 
Q 872 -63 570 368 
Q 269 800 269 1675 
Q 269 3444 1513 3444 
Q 1897 3444 2153 3303 
Q 2409 3163 2566 2856 
L 2572 2856 
L 2566 3234 
L 2566 4638 
L 3128 4638 
L 3128 697 
Q 3128 169 3147 0 
L 2609 0 
Q 2600 50 2589 231 
Q 2578 413 2578 544 
L 2566 544 
z
M 859 1694 
Q 859 984 1046 678 
Q 1234 372 1656 372 
Q 2134 372 2350 703 
Q 2566 1034 2566 1731 
Q 2566 2403 2350 2715 
Q 2134 3028 1663 3028 
Q 1238 3028 1048 2714 
Q 859 2400 859 1694 
z
" transform="scale(0.015625)"/>
       <path id="LiberationSans-53" d="M 3975 1216 
Q 3975 606 3498 271 
Q 3022 -63 2156 -63 
Q 547 -63 291 1056 
L 869 1172 
Q 969 775 1294 589 
Q 1619 403 2178 403 
Q 2756 403 3070 601 
Q 3384 800 3384 1184 
Q 3384 1400 3286 1534 
Q 3188 1669 3009 1756 
Q 2831 1844 2584 1903 
Q 2338 1963 2038 2031 
Q 1516 2147 1245 2262 
Q 975 2378 819 2520 
Q 663 2663 580 2853 
Q 497 3044 497 3291 
Q 497 3856 930 4162 
Q 1363 4469 2169 4469 
Q 2919 4469 3316 4239 
Q 3713 4009 3872 3456 
L 3284 3353 
Q 3188 3703 2916 3861 
Q 2644 4019 2163 4019 
Q 1634 4019 1356 3844 
Q 1078 3669 1078 3322 
Q 1078 3119 1186 2986 
Q 1294 2853 1497 2761 
Q 1700 2669 2306 2534 
Q 2509 2488 2711 2439 
Q 2913 2391 3097 2323 
Q 3281 2256 3442 2165 
Q 3603 2075 3722 1944 
Q 3841 1813 3908 1634 
Q 3975 1456 3975 1216 
z
" transform="scale(0.015625)"/>
       <path id="LiberationSans-6e" d="M 2578 0 
L 2578 2144 
Q 2578 2478 2512 2662 
Q 2447 2847 2303 2928 
Q 2159 3009 1881 3009 
Q 1475 3009 1240 2731 
Q 1006 2453 1006 1959 
L 1006 0 
L 444 0 
L 444 2659 
Q 444 3250 425 3381 
L 956 3381 
Q 959 3366 962 3297 
Q 966 3228 970 3139 
Q 975 3050 981 2803 
L 991 2803 
Q 1184 3153 1439 3298 
Q 1694 3444 2072 3444 
Q 2628 3444 2886 3167 
Q 3144 2891 3144 2253 
L 3144 0 
L 2578 0 
z
" transform="scale(0.015625)"/>
       <path id="LiberationSans-41" d="M 3647 0 
L 3144 1288 
L 1138 1288 
L 631 0 
L 13 0 
L 1809 4403 
L 2488 4403 
L 4256 0 
L 3647 0 
z
M 2141 3953 
L 2113 3866 
Q 2034 3606 1881 3200 
L 1319 1753 
L 2966 1753 
L 2400 3206 
Q 2313 3422 2225 3694 
L 2141 3953 
z
" transform="scale(0.015625)"/>
       <path id="LiberationSans-55" d="M 2284 -63 
Q 1744 -63 1341 134 
Q 938 331 716 706 
Q 494 1081 494 1600 
L 494 4403 
L 1091 4403 
L 1091 1650 
Q 1091 1047 1397 734 
Q 1703 422 2281 422 
Q 2875 422 3204 745 
Q 3534 1069 3534 1691 
L 3534 4403 
L 4128 4403 
L 4128 1656 
Q 4128 1122 3901 734 
Q 3675 347 3261 142 
Q 2847 -63 2284 -63 
z
" transform="scale(0.015625)"/>
       <path id="LiberationSans-43" d="M 2475 3981 
Q 1744 3981 1337 3511 
Q 931 3041 931 2222 
Q 931 1413 1354 920 
Q 1778 428 2500 428 
Q 3425 428 3891 1344 
L 4378 1100 
Q 4106 531 3614 234 
Q 3122 -63 2472 -63 
Q 1806 -63 1320 214 
Q 834 491 579 1005 
Q 325 1519 325 2222 
Q 325 3275 894 3872 
Q 1463 4469 2469 4469 
Q 3172 4469 3644 4194 
Q 4116 3919 4338 3378 
L 3772 3191 
Q 3619 3575 3280 3778 
Q 2941 3981 2475 3981 
z
" transform="scale(0.015625)"/>
       <path id="LiberationSans-3d" d="M 313 2675 
L 313 3138 
L 3422 3138 
L 3422 2675 
L 313 2675 
z
M 313 1075 
L 313 1538 
L 3422 1538 
L 3422 1075 
L 313 1075 
z
" transform="scale(0.015625)"/>
       <path id="LiberationSans-39" d="M 3256 2291 
Q 3256 1156 2842 546 
Q 2428 -63 1663 -63 
Q 1147 -63 836 154 
Q 525 372 391 856 
L 928 941 
Q 1097 391 1672 391 
Q 2156 391 2422 841 
Q 2688 1291 2700 2125 
Q 2575 1844 2272 1673 
Q 1969 1503 1606 1503 
Q 1013 1503 656 1909 
Q 300 2316 300 2988 
Q 300 3678 687 4073 
Q 1075 4469 1766 4469 
Q 2500 4469 2878 3925 
Q 3256 3381 3256 2291 
z
M 2644 2834 
Q 2644 3366 2400 3689 
Q 2156 4013 1747 4013 
Q 1341 4013 1106 3736 
Q 872 3459 872 2988 
Q 872 2506 1106 2226 
Q 1341 1947 1741 1947 
Q 1984 1947 2193 2058 
Q 2403 2169 2523 2372 
Q 2644 2575 2644 2834 
z
" transform="scale(0.015625)"/>
       <path id="LiberationSans-35" d="M 3291 1434 
Q 3291 738 2877 337 
Q 2463 -63 1728 -63 
Q 1113 -63 734 206 
Q 356 475 256 984 
L 825 1050 
Q 1003 397 1741 397 
Q 2194 397 2450 670 
Q 2706 944 2706 1422 
Q 2706 1838 2448 2094 
Q 2191 2350 1753 2350 
Q 1525 2350 1328 2278 
Q 1131 2206 934 2034 
L 384 2034 
L 531 4403 
L 3034 4403 
L 3034 3925 
L 1044 3925 
L 959 2528 
Q 1325 2809 1869 2809 
Q 2519 2809 2905 2428 
Q 3291 2047 3291 1434 
z
" transform="scale(0.015625)"/>
      </defs>
      <use xlink:href="#LiberationSans-57"/>
      <use xlink:href="#LiberationSans-65" x="92.634766"/>
      <use xlink:href="#LiberationSans-69" x="148.25"/>
      <use xlink:href="#LiberationSans-67" x="170.466797"/>
      <use xlink:href="#LiberationSans-68" x="226.082031"/>
      <use xlink:href="#LiberationSans-74" x="281.697266"/>
      <use xlink:href="#LiberationSans-65" x="309.480469"/>
      <use xlink:href="#LiberationSans-64" x="365.095703"/>
      <use xlink:href="#LiberationSans-20" x="420.710938"/>
      <use xlink:href="#LiberationSans-53" x="448.494141"/>
      <use xlink:href="#LiberationSans-61" x="515.193359"/>
      <use xlink:href="#LiberationSans-6c" x="570.808594"/>
      <use xlink:href="#LiberationSans-74" x="593.025391"/>
      <use xlink:href="#LiberationSans-6f" x="620.808594"/>
      <use xlink:href="#LiberationSans-6e" x="676.423828"/>
      <use xlink:href="#LiberationSans-20" x="732.039062"/>
      <use xlink:href="#LiberationSans-41" x="754.322266"/>
      <use xlink:href="#LiberationSans-55" x="821.021484"/>
      <use xlink:href="#LiberationSans-43" x="893.238281"/>
      <use xlink:href="#LiberationSans-20" x="965.455078"/>
      <use xlink:href="#LiberationSans-3d" x="993.238281"/>
      <use xlink:href="#LiberationSans-20" x="1051.636719"/>
      <use xlink:href="#LiberationSans-30" x="1079.419922"/>
      <use xlink:href="#LiberationSans-2e" x="1135.035156"/>
      <use xlink:href="#LiberationSans-39" x="1162.818359"/>
      <use xlink:href="#LiberationSans-35" x="1218.433594"/>
      <use xlink:href="#LiberationSans-39" x="1274.048828"/>
      <use xlink:href="#LiberationSans-34" x="1329.664062"/>
     </g>
    </g>
    <g id="line2d_30">
     <path d="M 521.43875 485.99625 
L 531.43875 485.99625 
L 541.43875 485.99625 
" style="fill: none; stroke: #2ca02c; stroke-width: 2; stroke-linecap: round"/>
    </g>
    <g id="text_17">
     <!-- Weighted HPI AUC = 0.9592 -->
     <g style="fill: #262626" transform="translate(549.43875 489.49625) scale(0.1 -0.1)">
      <defs>
       <path id="LiberationSans-48" d="M 3503 0 
L 3503 2041 
L 1122 2041 
L 1122 0 
L 525 0 
L 525 4403 
L 1122 4403 
L 1122 2541 
L 3503 2541 
L 3503 4403 
L 4100 4403 
L 4100 0 
L 3503 0 
z
" transform="scale(0.015625)"/>
       <path id="LiberationSans-49" d="M 591 0 
L 591 4403 
L 1188 4403 
L 1188 0 
L 591 0 
z
" transform="scale(0.015625)"/>
      </defs>
      <use xlink:href="#LiberationSans-57"/>
      <use xlink:href="#LiberationSans-65" x="92.634766"/>
      <use xlink:href="#LiberationSans-69" x="148.25"/>
      <use xlink:href="#LiberationSans-67" x="170.466797"/>
      <use xlink:href="#LiberationSans-68" x="226.082031"/>
      <use xlink:href="#LiberationSans-74" x="281.697266"/>
      <use xlink:href="#LiberationSans-65" x="309.480469"/>
      <use xlink:href="#LiberationSans-64" x="365.095703"/>
      <use xlink:href="#LiberationSans-20" x="420.710938"/>
      <use xlink:href="#LiberationSans-48" x="448.494141"/>
      <use xlink:href="#LiberationSans-50" x="520.710938"/>
      <use xlink:href="#LiberationSans-49" x="587.410156"/>
      <use xlink:href="#LiberationSans-20" x="615.193359"/>
      <use xlink:href="#LiberationSans-41" x="637.476562"/>
      <use xlink:href="#LiberationSans-55" x="704.175781"/>
      <use xlink:href="#LiberationSans-43" x="776.392578"/>
      <use xlink:href="#LiberationSans-20" x="848.609375"/>
      <use xlink:href="#LiberationSans-3d" x="876.392578"/>
      <use xlink:href="#LiberationSans-20" x="934.791016"/>
      <use xlink:href="#LiberationSans-30" x="962.574219"/>
      <use xlink:href="#LiberationSans-2e" x="1018.189453"/>
      <use xlink:href="#LiberationSans-39" x="1045.972656"/>
      <use xlink:href="#LiberationSans-35" x="1101.587891"/>
      <use xlink:href="#LiberationSans-39" x="1157.203125"/>
      <use xlink:href="#LiberationSans-32" x="1212.818359"/>
     </g>
    </g>
    <g id="line2d_31">
     <path d="M 521.43875 500.318125 
L 531.43875 500.318125 
L 541.43875 500.318125 
" style="fill: none; stroke: #ff7f0e; stroke-width: 2; stroke-linecap: round"/>
    </g>
    <g id="text_18">
     <!-- Weighted RA AUC = 0.9595 -->
     <g style="fill: #262626" transform="translate(549.43875 503.818125) scale(0.1 -0.1)">
      <use xlink:href="#LiberationSans-57"/>
      <use xlink:href="#LiberationSans-65" x="92.634766"/>
      <use xlink:href="#LiberationSans-69" x="148.25"/>
      <use xlink:href="#LiberationSans-67" x="170.466797"/>
      <use xlink:href="#LiberationSans-68" x="226.082031"/>
      <use xlink:href="#LiberationSans-74" x="281.697266"/>
      <use xlink:href="#LiberationSans-65" x="309.480469"/>
      <use xlink:href="#LiberationSans-64" x="365.095703"/>
      <use xlink:href="#LiberationSans-20" x="420.710938"/>
      <use xlink:href="#LiberationSans-52" x="448.494141"/>
      <use xlink:href="#LiberationSans-41" x="520.710938"/>
      <use xlink:href="#LiberationSans-20" x="581.910156"/>
      <use xlink:href="#LiberationSans-41" x="604.193359"/>
      <use xlink:href="#LiberationSans-55" x="670.892578"/>
      <use xlink:href="#LiberationSans-43" x="743.109375"/>
      <use xlink:href="#LiberationSans-20" x="815.326172"/>
      <use xlink:href="#LiberationSans-3d" x="843.109375"/>
      <use xlink:href="#LiberationSans-20" x="901.507812"/>
      <use xlink:href="#LiberationSans-30" x="929.291016"/>
      <use xlink:href="#LiberationSans-2e" x="984.90625"/>
      <use xlink:href="#LiberationSans-39" x="1012.689453"/>
      <use xlink:href="#LiberationSans-35" x="1068.304688"/>
      <use xlink:href="#LiberationSans-39" x="1123.919922"/>
      <use xlink:href="#LiberationSans-35" x="1179.535156"/>
     </g>
    </g>
    <g id="line2d_32">
     <path d="M 521.43875 514.64 
L 531.43875 514.64 
L 541.43875 514.64 
" style="fill: none; stroke-dasharray: 5.55,2.4; stroke-dashoffset: 0; stroke: #808080; stroke-width: 1.5"/>
    </g>
    <g id="text_19">
     <!-- Chance -->
     <g style="fill: #262626" transform="translate(549.43875 518.14) scale(0.1 -0.1)">
      <defs>
       <path id="LiberationSans-63" d="M 859 1706 
Q 859 1031 1071 706 
Q 1284 381 1713 381 
Q 2013 381 2214 543 
Q 2416 706 2463 1044 
L 3031 1006 
Q 2966 519 2616 228 
Q 2266 -63 1728 -63 
Q 1019 -63 645 385 
Q 272 834 272 1694 
Q 272 2547 647 2995 
Q 1022 3444 1722 3444 
Q 2241 3444 2583 3175 
Q 2925 2906 3013 2434 
L 2434 2391 
Q 2391 2672 2212 2837 
Q 2034 3003 1706 3003 
Q 1259 3003 1059 2706 
Q 859 2409 859 1706 
z
" transform="scale(0.015625)"/>
      </defs>
      <use xlink:href="#LiberationSans-43"/>
      <use xlink:href="#LiberationSans-68" x="72.216797"/>
      <use xlink:href="#LiberationSans-61" x="127.832031"/>
      <use xlink:href="#LiberationSans-6e" x="183.447266"/>
      <use xlink:href="#LiberationSans-63" x="239.0625"/>
      <use xlink:href="#LiberationSans-65" x="289.0625"/>
     </g>
    </g>
   </g>
  </g>
 </g>
 <defs>
  <clipPath id="pa484a7297e">
   <rect x="44.430625" y="24.795" width="652.53" height="504.42"/>
  </clipPath>
 </defs>
</svg>
